<svg width="65" height="65" viewBox="0 0 65 65" fill="none" xmlns="http://www.w3.org/2000/svg">
    <path d="M62.6741 1.88574C63.0932 1.88574 63.3027 2.09528 63.3027 2.51437V28.0367C63.3027 28.4557 63.0932 28.6653 62.6741 28.6653C62.1712 28.6653 61.6264 28.6653 61.0397 28.6653C60.7044 28.5815 60.4948 28.4138 60.411 28.1624L59.6567 25.145C58.7347 24.9773 57.7708 24.7678 56.765 24.5164L54.8791 27.0309C54.7115 27.2823 54.46 27.3661 54.1248 27.2823C53.119 26.947 52.1551 26.5699 51.2331 26.1508C50.8978 25.9832 50.7721 25.7317 50.8559 25.3964L51.2331 22.379C50.3949 21.8761 49.5567 21.2894 48.7186 20.6189L45.9526 22.2533C45.7012 22.4209 45.4497 22.4209 45.1983 22.2533C44.4439 21.4989 43.6896 20.7446 42.9352 19.9902C42.7676 19.7388 42.7676 19.4873 42.9352 19.2359L44.4439 16.5957C43.7734 15.7575 43.1447 14.8774 42.558 13.9554L39.5406 14.4583C39.2054 14.4583 38.9539 14.3326 38.7863 14.0812C38.3672 13.1592 37.9481 12.2372 37.529 11.3152C37.4452 10.9799 37.529 10.7285 37.7805 10.5608L40.295 8.67491C39.9597 7.58529 39.6663 6.49567 39.4149 5.40605L36.3975 4.52597C36.146 4.44216 35.9784 4.27452 35.8946 4.02307C35.8946 3.52017 35.8946 3.01727 35.8946 2.51437C35.8946 2.34674 35.9575 2.20006 36.0832 2.07433C36.2089 1.9486 36.3556 1.88574 36.5232 1.88574H43.1867C43.6896 1.88574 43.941 2.09528 43.941 2.51437C44.1086 7.45957 45.9317 11.6714 49.4101 15.1498C52.8885 18.6282 57.1003 20.4512 62.0455 20.6189V3.143H45.9526C45.4497 3.143 45.1983 2.93345 45.1983 2.51437C45.1983 2.09528 45.4497 1.88574 45.9526 1.88574H62.6741ZM62.0455 27.2823V22.0018C56.8488 21.8342 52.3856 19.9483 48.6557 16.3442C44.9259 12.7401 42.8933 8.33964 42.558 3.143H37.2776C37.2776 3.22681 37.2776 3.31063 37.2776 3.39445L40.295 4.1488C40.5464 4.23262 40.7141 4.44216 40.7979 4.77743C40.9655 6.1185 41.2589 7.45957 41.678 8.80064C41.7618 9.05209 41.678 9.30354 41.4265 9.55499L39.0377 11.3152C39.2892 11.9019 39.5406 12.4467 39.7921 12.9496L42.8095 12.5724C43.1447 12.4886 43.3962 12.6144 43.5638 12.9496C44.1506 14.0392 44.9049 15.087 45.8269 16.0928C45.9945 16.3442 45.9945 16.5957 45.8269 16.8471L44.3182 19.4873C44.7373 19.9902 45.1983 20.4512 45.7012 20.8703L48.3414 19.2359C48.5928 19.1521 48.8443 19.194 49.0957 19.3616C50.1016 20.116 51.1912 20.7865 52.3646 21.3732C52.6161 21.5409 52.6999 21.7923 52.6161 22.1276L52.2389 25.145C52.8256 25.3964 53.4542 25.6479 54.1248 25.8993L56.0106 23.3848C56.1783 23.1334 56.3878 23.0496 56.6393 23.1334C57.8965 23.4686 59.1119 23.7201 60.2853 23.8877C60.6206 23.8877 60.8301 24.0554 60.9139 24.3906L61.6683 27.2823C61.7521 27.2823 61.8778 27.2823 62.0455 27.2823ZM26.4652 28.0367C26.4652 28.0367 26.3604 28.0367 26.1509 28.0367C25.9413 28.0367 25.8366 27.8062 25.8366 27.3452C25.8366 26.8842 26.0461 26.6537 26.4652 26.6537C26.8843 26.6537 27.0938 26.8842 27.0938 27.3452C27.0938 27.8062 26.8843 28.0367 26.4652 28.0367ZM21.1219 28.0367C21.1219 28.0367 21.0066 28.0367 20.7761 28.0367C20.5456 28.0367 20.4304 27.8062 20.4304 27.3452C20.4304 26.8842 20.6609 26.6537 21.1219 26.6537C21.5829 26.6537 21.8134 26.8842 21.8134 27.3452C21.8134 27.8062 21.5829 28.0367 21.1219 28.0367ZM11.6925 34.0714C11.6925 34.0714 11.5772 34.0714 11.3467 34.0714C11.1162 34.0714 11.001 33.841 11.001 33.38C11.001 32.919 11.2315 32.6885 11.6925 32.6885C12.1535 32.6885 12.3839 32.919 12.3839 33.38C12.3839 33.841 12.1535 34.0714 11.6925 34.0714ZM9.05223 34.0714C9.05223 34.0714 8.93698 34.0714 8.70648 34.0714C8.47599 34.0714 8.36074 33.841 8.36074 33.38C8.36074 32.919 8.59124 32.6885 9.05223 32.6885C9.51322 32.6885 9.74372 32.919 9.74372 33.38C9.74372 33.841 9.51322 34.0714 9.05223 34.0714ZM6.34913 34.0714C6.34913 34.0714 6.24436 34.0714 6.03482 34.0714C5.82528 34.0714 5.72051 33.841 5.72051 33.38C5.72051 32.919 5.93005 32.6885 6.34913 32.6885C6.76822 32.6885 6.97776 32.919 6.97776 33.38C6.97776 33.841 6.76822 34.0714 6.34913 34.0714ZM14.647 44.8839C15.0661 45.1353 15.1499 45.4286 14.8985 45.7639C14.7308 46.0154 14.5213 46.1411 14.2698 46.1411C14.186 46.1411 14.0603 46.0992 13.8927 46.0154C10.2047 43.6684 7.60639 40.3997 6.09768 36.2088C5.93005 35.7896 6.05577 35.5173 6.47486 35.3916C6.89394 35.2659 7.1873 35.4124 7.35494 35.8316C8.77982 39.6871 11.2105 42.7046 14.647 44.8839ZM51.2331 5.90895C51.2331 7.92056 51.9665 9.6388 53.4333 11.0637C54.9001 12.4886 56.6393 13.2011 58.6509 13.2011C59.07 13.2011 59.2795 13.4316 59.2795 13.8926C59.2795 14.3536 59.07 14.5841 58.6509 14.5841C56.2202 14.5841 54.1667 13.7249 52.4903 12.0067C50.814 10.2884 49.9758 8.25582 49.9758 5.90895C49.9758 5.40605 50.1854 5.1546 50.6045 5.1546C51.0235 5.1546 51.2331 5.40605 51.2331 5.90895ZM57.1422 9.05209C56.9745 9.13591 56.8069 9.17781 56.6393 9.17781C56.4716 9.17781 56.304 9.13591 56.1364 9.05209C55.8011 8.71682 55.8011 8.38155 56.1364 8.04628L59.1538 5.02888C59.489 4.69361 59.8243 4.69361 60.1596 5.02888C60.4948 5.36414 60.4948 5.69941 60.1596 6.03468L57.1422 9.05209ZM45.9526 32.4371L51.8617 40.9864C52.0293 41.2378 52.0503 41.4893 51.9246 41.7407C51.7988 41.9921 51.5683 42.1179 51.2331 42.1179H45.9526V47.3983C45.9526 48.3204 45.6173 49.1166 44.9468 49.7871C44.2763 50.4577 43.48 50.7929 42.558 50.7929H31.8714V54.1875C32.3743 54.1875 32.8353 54.376 33.2544 54.7533C33.6734 55.1305 33.883 55.6124 33.883 56.1991C33.883 56.702 33.7154 57.1211 33.3801 57.4564C33.7154 57.8755 33.883 58.3365 33.883 58.8394C33.883 59.4261 33.6734 59.9079 33.2544 60.2851C32.8353 60.6623 32.3743 60.851 31.8714 60.851H26.4652C26.4652 61.6053 26.1928 62.234 25.648 62.7369C25.1032 63.2397 24.4745 63.4911 23.7621 63.4911C23.0497 63.4911 22.421 63.2397 21.8762 62.7369C21.3314 62.234 21.059 61.6053 21.059 60.851H15.7785C15.1918 60.851 14.7099 60.6623 14.3327 60.2851C13.9555 59.9079 13.7669 59.4261 13.7669 58.8394C13.7669 58.3365 13.9346 57.8755 14.2698 57.4564C13.9346 57.1211 13.7669 56.702 13.7669 56.1991C13.7669 55.6124 13.9555 55.1305 14.3327 54.7533C14.7099 54.376 15.1918 54.1875 15.7785 54.1875V50.6671C11.2524 48.907 7.73211 45.9734 5.2176 41.8665C2.7031 37.7593 1.52966 33.2752 1.6973 28.4138C1.6973 28.1624 1.82302 27.9528 2.07447 27.7852L5.97196 26.1508C6.22341 24.4744 6.72631 22.8819 7.48066 21.3732L5.34333 17.7272C5.1757 17.5596 5.1757 17.35 5.34333 17.0986C5.6786 16.5957 6.05577 16.0928 6.47486 15.5899C6.64249 15.4222 6.85203 15.3384 7.10349 15.3384L11.2524 16.3442C12.4259 15.1708 13.7669 14.165 15.2756 13.3268L15.6528 9.17781C15.6528 8.84254 15.7785 8.633 16.03 8.54919C16.6167 8.38155 17.2034 8.21392 17.7901 8.04628C18.0416 7.96247 18.293 8.00438 18.5445 8.17201L21.3104 11.4409C22.9868 11.1895 24.6631 11.1895 26.3395 11.4409L29.1054 8.17201C29.2731 8.00438 29.4826 7.96247 29.734 8.04628C30.4046 8.21392 30.9913 8.38155 31.4942 8.54919C31.7457 8.633 31.8714 8.84254 31.8714 9.17781L32.2486 13.3268C33.7573 14.165 35.1402 15.1708 36.3975 16.3442L40.4207 15.3384C40.756 15.2546 41.0074 15.3384 41.1751 15.5899C41.5103 16.0928 41.8456 16.5957 42.1809 17.0986C42.3485 17.35 42.3485 17.5596 42.1809 17.7272L40.0435 21.3732C40.7979 22.8819 41.3008 24.4744 41.5522 26.1508L45.4497 27.7852C45.785 27.9528 45.9526 28.1624 45.9526 28.4138V32.4371ZM2.95455 28.9167C2.95455 29.0844 2.95455 29.2101 2.95455 29.2939H10.3723C10.3723 25.606 11.6925 22.4628 14.3327 19.8645C16.9729 17.2662 20.137 15.967 23.825 15.967C27.5129 15.967 30.656 17.2662 33.2544 19.8645C35.8527 22.4628 37.1518 25.606 37.1518 29.2939H44.5696C44.5696 29.2101 44.5696 29.0844 44.5696 28.9167L40.7979 27.2823C40.5464 27.1985 40.3788 27.0309 40.295 26.7794C40.0435 25.0193 39.4987 23.3429 38.6605 21.7504C38.5767 21.4989 38.6186 21.2475 38.7863 20.996L40.7979 17.4757C40.6302 17.2243 40.4626 16.9728 40.295 16.7214L36.2718 17.7272C36.0203 17.7272 35.8108 17.6434 35.6431 17.4757C34.3859 16.2185 32.961 15.1708 31.3685 14.3326C31.117 14.2488 30.9913 14.0812 30.9913 13.8297L30.6141 9.68071C30.3627 9.5969 30.0693 9.51308 29.734 9.42926L27.0938 12.5724C26.9262 12.7401 26.7166 12.8239 26.4652 12.8239C24.705 12.4886 22.9449 12.4886 21.1847 12.8239C20.9333 12.8239 20.7237 12.7401 20.5561 12.5724L17.7901 9.42926C17.4549 9.51308 17.1615 9.5969 16.9101 9.68071L16.5329 13.8297C16.5329 14.0812 16.4072 14.2488 16.1557 14.3326C14.5632 15.1708 13.1383 16.2185 11.881 17.4757C11.7134 17.6434 11.5039 17.7272 11.2524 17.7272L7.22921 16.7214C7.06158 16.9728 6.89394 17.2243 6.72631 17.4757L8.86364 20.996C8.94746 21.2475 8.94746 21.4989 8.86364 21.7504C8.02547 23.3429 7.48066 25.0193 7.22921 26.7794C7.14539 27.0309 7.01967 27.1985 6.85203 27.2823L2.95455 28.9167ZM23.0706 29.2939V20.6189C20.8075 20.7865 18.9007 21.7085 17.3501 23.3848C15.7995 25.0612 15.0242 27.0309 15.0242 29.2939H23.0706ZM24.4536 20.6189V29.2939H32.5C32.5 27.0309 31.7247 25.0612 30.1741 23.3848C28.6235 21.7085 26.7166 20.7865 24.4536 20.6189ZM16.7215 22.1904C16.7215 22.1904 17.2139 21.698 18.1987 20.7132C19.1836 19.7283 21.059 19.2359 23.825 19.2359C26.5909 19.2359 28.9587 20.2207 30.9284 22.1904C32.8981 24.1601 33.883 26.528 33.883 29.2939H35.8946C35.8946 26.0251 34.7002 23.1962 32.3114 20.8075C29.9226 18.4187 27.0729 17.2243 23.7621 17.2243C20.4513 17.2243 17.6225 18.4187 15.2756 20.8075C12.9288 23.1962 11.7553 26.0251 11.7553 29.2939H13.7669C13.7669 26.528 14.7518 24.1601 16.7215 22.1904ZM22.8192 61.7938C22.8192 61.7938 22.882 61.8673 23.0077 62.0139C23.1335 62.1606 23.3849 62.234 23.7621 62.234C24.1393 62.234 24.4536 62.0872 24.705 61.7938C24.9565 61.5005 25.0822 61.1862 25.0822 60.851H22.442C22.442 61.1862 22.5677 61.5005 22.8192 61.7938ZM31.8714 59.4679C32.2905 59.4679 32.5 59.2585 32.5 58.8394C32.5 58.4202 32.2905 58.2107 31.8714 58.2107H15.7785C15.2756 58.2107 15.0242 58.4202 15.0242 58.8394C15.0242 59.2585 15.2756 59.4679 15.7785 59.4679H31.8714ZM31.8714 56.8278C32.2905 56.8278 32.5 56.5972 32.5 56.1362C32.5 55.6753 32.2905 55.4448 31.8714 55.4448H15.7785C15.2756 55.4448 15.0242 55.6753 15.0242 56.1362C15.0242 56.5972 15.2756 56.8278 15.7785 56.8278H31.8714ZM45.1983 40.7349H49.9758L44.6954 33.0657C44.6115 32.9819 44.5696 32.8561 44.5696 32.6885V30.6769H33.883V41.112L35.6431 42.998C35.8108 43.0818 35.8946 43.2074 35.8946 43.3751V47.3983C35.8946 47.9012 35.6641 48.1526 35.2031 48.1526C34.7421 48.1526 34.5116 47.9012 34.5116 47.3983V43.7523L32.7515 41.8665C32.5838 41.7826 32.5 41.615 32.5 41.3636V30.6769H3.08027C3.16409 34.8677 4.46325 38.7024 6.97776 42.1808C9.49227 45.6592 12.7192 48.1108 16.6586 49.5357C16.9101 49.6195 17.0358 49.829 17.0358 50.1642V54.1875H24.4536V41.3636C24.4536 41.1959 24.5374 41.0702 24.705 40.9864L29.6083 35.9574C29.776 35.7896 29.8598 35.622 29.8598 35.4544C29.8598 34.9515 29.6083 34.7001 29.1054 34.7001C28.854 34.7001 28.6444 34.7838 28.4768 34.9515C27.2195 36.2087 25.6689 36.8373 23.825 36.8373C21.981 36.8373 20.3885 36.2087 19.0474 34.9515C18.8798 34.7838 18.7121 34.7001 18.5445 34.7001C18.0416 34.7001 17.7901 34.9515 17.7901 35.4544C17.7901 35.622 17.832 35.7896 17.9159 35.9574L22.9449 40.9864C23.0287 41.0702 23.0706 41.1959 23.0706 41.3636V52.1758C23.0706 52.595 22.8611 52.8046 22.442 52.8046C22.0229 52.8046 21.8134 52.595 21.8134 52.1758V41.7407L17.0358 36.9632C16.6167 36.544 16.4072 36.0411 16.4072 35.4544C16.4072 34.8676 16.6167 34.3647 17.0358 33.9458C17.4549 33.5267 17.9578 33.3171 18.5445 33.3171C19.1312 33.3171 19.5922 33.5267 19.9275 33.9458C21.0171 35.0354 22.2953 35.5802 23.7621 35.5802C25.2289 35.5802 26.5071 35.0354 27.5967 33.9458C28.0158 33.5267 28.5187 33.3171 29.1054 33.3171C29.4407 33.3171 29.776 33.4219 30.1112 33.6314C30.4465 33.841 30.6979 34.0924 30.8656 34.3857C31.0332 34.6791 31.117 35.0353 31.117 35.4544C31.117 36.0411 30.9075 36.544 30.4884 36.9632L25.8366 41.7407V54.1875H30.4884V50.1642C30.4884 49.9967 30.5722 49.8291 30.7398 49.6614C30.8237 49.4938 30.9913 49.41 31.2428 49.41H42.558C43.1447 49.41 43.6267 49.2214 44.0039 48.8442C44.3811 48.4669 44.5696 47.9851 44.5696 47.3983V46.1411H41.1751C40.2531 46.1411 39.4778 45.8058 38.8491 45.1353C38.2205 44.4647 37.9062 43.6684 37.9062 42.7464C37.9062 42.3273 38.1157 42.1179 38.5348 42.1179C38.9539 42.1179 39.1634 42.3273 39.1634 42.7464C39.1634 43.3331 39.373 43.8152 39.7921 44.1924C40.2112 44.5695 40.6722 44.758 41.1751 44.758H44.5696V41.3636C44.5696 40.9445 44.7792 40.7349 45.1983 40.7349ZM42.0551 34.9515C42.3066 34.6162 42.6209 34.5952 42.9981 34.8886C43.3752 35.182 43.3962 35.4963 43.0609 35.8316C42.2228 36.8373 41.1751 37.3403 39.9178 37.3403C38.6605 37.3403 37.5709 36.8373 36.6489 35.8316C36.3975 35.4963 36.4394 35.182 36.7747 34.8886C37.1099 34.5952 37.4033 34.6162 37.6547 34.9515C38.3253 35.7058 39.0796 36.083 39.9178 36.083C40.756 36.083 41.4684 35.7058 42.0551 34.9515ZM55.2563 31.3055C55.7592 31.3055 56.0106 31.536 56.0106 31.997C56.0106 32.458 55.7592 32.6885 55.2563 32.6885H53.999V34.0714C53.999 34.4906 53.7685 34.7001 53.3075 34.7001C52.8466 34.7001 52.6161 34.4906 52.6161 34.0714V32.6885H51.2331C50.814 32.6885 50.6045 32.458 50.6045 31.997C50.6045 31.536 50.814 31.3055 51.2331 31.3055H52.6161V30.0483C52.6161 29.5454 52.8466 29.2939 53.3075 29.2939C53.7685 29.2939 53.999 29.5454 53.999 30.0483V31.3055H55.2563ZM61.2911 36.083C61.794 36.083 62.0455 36.2925 62.0455 36.7117C62.0455 37.1308 61.794 37.3403 61.2911 37.3403H60.0339V38.7233C60.0339 39.1424 59.8034 39.3518 59.3424 39.3518C58.8814 39.3518 58.6509 39.1424 58.6509 38.7233V37.3403H57.2679C56.8488 37.3403 56.6393 37.1308 56.6393 36.7117C56.6393 36.2925 56.8488 36.083 57.2679 36.083H58.6509V34.7001C58.6509 34.2809 58.8814 34.0714 59.3424 34.0714C59.8034 34.0714 60.0339 34.2809 60.0339 34.7001V36.083H61.2911Z" fill="#1F12FC"/>
</svg>