<svg width="65" height="65" viewBox="0 0 65 65" fill="none" xmlns="http://www.w3.org/2000/svg">
    <g clip-path="url(#clip0_1_475)">
        <path d="M7.10348 44.7582C7.6902 44.7582 7.98356 45.0725 7.98356 45.7012C7.98356 46.3298 7.6902 46.6441 7.10348 46.6441H6.97776C6.30722 46.6441 5.97195 46.3298 5.97195 45.7012C5.97195 45.0725 6.30722 44.7582 6.97776 44.7582H7.10348ZM13.1383 44.7582C13.8088 44.7582 14.1441 45.0725 14.1441 45.7012C14.1441 46.3298 13.8088 46.6441 13.1383 46.6441H13.0126C12.4259 46.6441 12.1325 46.3298 12.1325 45.7012C12.1325 45.0725 12.4259 44.7582 13.0126 44.7582H13.1383ZM9.99516 44.7582C10.6657 44.7582 11.001 45.0725 11.001 45.7012C11.001 46.3298 10.6657 46.6441 9.99516 46.6441C9.32463 46.6441 8.98936 46.3298 8.98936 45.7012C8.98936 45.0725 9.32463 44.7582 9.99516 44.7582ZM11.5039 20.2418C12.1744 20.2418 12.5097 20.5561 12.5097 21.1847C12.5097 21.8133 12.1744 22.1277 11.5039 22.1277H8.61219C7.94165 22.1277 7.60638 21.8133 7.60638 21.1847C7.60638 20.5561 7.94165 20.2418 8.61219 20.2418H11.5039ZM29.4826 7.04065C30.1531 7.04065 30.4884 7.35496 30.4884 7.98359C30.4884 8.61221 30.1531 8.92653 29.4826 8.92653H29.3569C28.7701 8.92653 28.4768 8.61221 28.4768 7.98359C28.4768 7.35496 28.7701 7.04065 29.3569 7.04065H29.4826ZM35.5174 8.92653C34.8469 8.92653 34.5116 8.61221 34.5116 7.98359C34.5116 7.35496 34.8469 7.04065 35.5174 7.04065H35.6431C36.2299 7.04065 36.5232 7.35496 36.5232 7.98359C36.5232 8.61221 36.2299 8.92653 35.6431 8.92653H35.5174ZM32.5 7.04065C33.1705 7.04065 33.5058 7.35496 33.5058 7.98359C33.5058 8.61221 33.1705 8.92653 32.5 8.92653H32.3743C31.7876 8.92653 31.4942 8.61221 31.4942 7.98359C31.4942 7.35496 31.7876 7.04065 32.3743 7.04065H32.5ZM12.5097 17.2244C13.0964 17.2244 13.3897 17.5387 13.3897 18.1673C13.3897 18.7959 13.0964 19.1102 12.5097 19.1102H7.60638C7.01967 19.1102 6.72631 18.7959 6.72631 18.1673C6.72631 17.5387 7.01967 17.2244 7.60638 17.2244H12.5097ZM58.0222 44.7582C58.6928 44.7582 59.028 45.0725 59.028 45.7012C59.028 46.3298 58.6928 46.6441 58.0222 46.6441H57.8965C57.3098 46.6441 57.0164 46.3298 57.0164 45.7012C57.0164 45.0725 57.3098 44.7582 57.8965 44.7582H58.0222ZM25.8366 42.9981C25.6689 43.2495 25.4175 43.3752 25.0822 43.3752C24.9146 43.3752 24.7469 43.2914 24.5793 43.1238C23.4059 42.2856 22.442 41.2798 21.6876 40.1064L16.9101 42.7466C17.2453 43.6686 17.413 44.6325 17.413 45.6383C17.413 47.7337 16.7005 49.4939 15.2756 50.9188C13.8507 52.3436 12.1115 53.0561 10.058 53.0561C8.00451 53.0561 6.24436 52.3436 4.77756 50.9188C3.31077 49.4939 2.57737 47.7337 2.57737 45.6383C2.57737 44.2972 2.91264 43.0609 3.58317 41.9294C4.25371 40.7979 5.15474 39.8968 6.28627 39.2263C7.4178 38.5558 8.65409 38.2205 9.99516 38.2205C12.5097 38.2205 14.4794 39.1844 15.9043 41.1122L20.6818 38.4719C19.8437 36.628 19.4246 34.7002 19.4246 32.6886C19.4246 30.677 19.8437 28.7492 20.6818 26.9052L15.9043 24.265C14.4794 26.1928 12.5097 27.1567 9.99516 27.1567C7.98356 27.1567 6.24436 26.4233 4.77756 24.9565C3.31077 23.4897 2.57737 21.7295 2.57737 19.676C2.57737 17.6225 3.31077 15.8833 4.77756 14.4584C6.24436 13.0335 8.00451 12.3211 10.058 12.3211C12.1115 12.3211 13.8507 13.0335 15.2756 14.4584C16.7005 15.8833 17.413 17.6434 17.413 19.7389C17.413 20.7447 17.2453 21.7086 16.9101 22.6306L21.6876 25.2708C24.0345 21.7505 27.3453 19.8646 31.6199 19.6131V15.3385C29.776 15.087 28.2253 14.2698 26.9681 12.8868C25.7108 11.5039 25.0822 9.84852 25.0822 7.92073C25.0822 5.90912 25.8156 4.16992 27.2824 2.70313C28.7492 1.23633 30.4884 0.50293 32.5 0.50293C34.5116 0.50293 36.2508 1.23633 37.7176 2.70313C39.1844 4.16992 39.9178 5.90912 39.9178 7.92073C39.9178 9.84852 39.2892 11.5039 38.0319 12.8868C36.7747 14.2698 35.266 15.087 33.5058 15.3385V19.6131C34.9307 19.697 36.3137 20.0322 37.6547 20.6189C38.2415 20.8704 38.4091 21.2895 38.1576 21.8762C37.9062 22.4629 37.4871 22.6306 36.9004 22.3791C35.4755 21.7086 34.0087 21.3733 32.5 21.3733C30.4884 21.3733 28.6235 21.8762 26.9052 22.882C25.187 23.8878 23.825 25.2708 22.8192 27.0309C21.8133 28.7911 21.3104 30.677 21.3104 32.6886C21.3104 36.3765 22.7772 39.352 25.7108 41.6151C26.2137 42.0342 26.2556 42.4952 25.8366 42.9981ZM28.6025 4.02324C28.6025 4.02324 28.3301 4.29564 27.7853 4.84046C27.2405 5.38527 26.9681 6.41202 26.9681 7.92073C26.9681 9.42943 27.5129 10.7286 28.6025 11.8182C29.6921 12.9078 30.9913 13.4526 32.5 13.4526C34.0087 13.4526 35.3079 12.9078 36.3975 11.8182C37.4871 10.7286 38.0319 9.42943 38.0319 7.92073C38.0319 6.41202 37.4871 5.11286 36.3975 4.02324C35.3079 2.93362 34.0087 2.38881 32.5 2.38881C30.9913 2.38881 29.6921 2.93362 28.6025 4.02324ZM6.16054 23.6364C6.16054 23.6364 6.42247 23.9088 6.94633 24.4536C7.47018 24.9984 8.50742 25.2708 10.058 25.2708C11.6086 25.2708 12.9078 24.726 13.9555 23.6364C15.0032 22.5467 15.5271 21.2266 15.5271 19.676C15.5271 18.1254 15.0032 16.8262 13.9555 15.7785C12.9078 14.7308 11.6086 14.207 10.058 14.207C8.50742 14.207 7.20825 14.7308 6.16054 15.7785C5.11283 16.8262 4.58898 18.1254 4.58898 19.676C4.58898 21.2266 5.11283 22.5467 6.16054 23.6364ZM6.16054 49.5986C6.16054 49.5986 6.42247 49.8606 6.94633 50.3844C7.47018 50.9083 8.50742 51.1702 10.058 51.1702C11.6086 51.1702 12.9078 50.6463 13.9555 49.5986C15.0032 48.5509 15.5271 47.2518 15.5271 45.7012C15.5271 44.1505 15.0032 42.8304 13.9555 41.7408C12.9078 40.6512 11.6086 40.1064 10.058 40.1064C8.50742 40.1064 7.20825 40.6512 6.16054 41.7408C5.11283 42.8304 4.58898 44.1505 4.58898 45.7012C4.58898 47.2518 5.11283 48.5509 6.16054 49.5986ZM30.1112 56.8278C29.4407 56.8278 29.1054 56.5135 29.1054 55.8849C29.1054 55.2563 29.4407 54.942 30.1112 54.942H34.8888C35.5593 54.942 35.8946 55.2563 35.8946 55.8849C35.8946 56.5135 35.5593 56.8278 34.8888 56.8278H30.1112ZM55.0048 44.7582C55.5916 44.7582 55.8849 45.0725 55.8849 45.7012C55.8849 46.3298 55.5916 46.6441 55.0048 46.6441H54.8791C54.2086 46.6441 53.8733 46.3298 53.8733 45.7012C53.8733 45.0725 54.2086 44.7582 54.8791 44.7582H55.0048ZM55.0048 38.2205C57.0164 38.2205 58.7556 38.9539 60.2224 40.4207C61.6892 41.8875 62.4226 43.6476 62.4226 45.7012C62.4226 47.7547 61.6892 49.4939 60.2224 50.9188C58.7556 52.3436 56.9955 53.0561 54.942 53.0561C52.8885 53.0561 51.1493 52.3436 49.7244 50.9188C48.2995 49.4939 47.587 47.7337 47.587 45.6383C47.587 44.6325 47.7547 43.6686 48.0899 42.7466L43.3124 40.1064C40.9655 43.6267 37.6547 45.5126 33.3801 45.764V50.0387C35.2241 50.2901 36.7747 51.1073 38.0319 52.4903C39.2892 53.8733 39.9178 55.5287 39.9178 57.4565C39.9178 59.4681 39.1844 61.2073 37.7176 62.6741C36.2508 64.1409 34.5116 64.8743 32.5 64.8743C30.4884 64.8743 28.7492 64.1409 27.2824 62.6741C25.8156 61.2073 25.0822 59.4681 25.0822 57.4565C25.0822 55.5287 25.7108 53.8733 26.9681 52.4903C28.2253 51.1073 29.734 50.2901 31.4942 50.0387V45.764C30.1531 45.6802 28.854 45.3868 27.5967 44.8839C27.01 44.6325 26.8424 44.2134 27.0938 43.6267C27.3453 43.04 27.7643 42.8723 28.3511 43.1238C29.6921 43.7105 31.0751 44.0039 32.5 44.0039C35.6012 44.0039 38.2415 42.8933 40.4207 40.6721C42.5999 38.451 43.6896 35.7898 43.6896 32.6886C43.6896 29.1683 42.3485 26.2766 39.6663 24.0135C39.1634 23.5944 39.1215 23.1544 39.5406 22.6934C39.9597 22.2324 40.4207 22.2115 40.9236 22.6306C41.8456 23.3849 42.6418 24.265 43.3124 25.2708L48.0899 22.6306C47.7547 21.7086 47.587 20.7447 47.587 19.7389C47.587 17.6434 48.2995 15.8833 49.7244 14.4584C51.1493 13.0335 52.8885 12.3211 54.942 12.3211C56.9955 12.3211 58.7556 13.0335 60.2224 14.4584C61.6892 15.8833 62.4226 17.6434 62.4226 19.7389C62.4226 21.0799 62.0874 22.3162 61.4168 23.4478C60.7463 24.5793 59.8453 25.4803 58.7137 26.1509C57.5822 26.8214 56.3459 27.1567 55.0048 27.1567C52.4903 27.1567 50.5206 26.1928 49.0957 24.265L44.3182 26.9052C45.1564 28.7492 45.5754 30.677 45.5754 32.6886C45.5754 34.7002 45.1564 36.628 44.3182 38.4719L49.0957 41.1122C50.5206 39.1844 52.4903 38.2205 55.0048 38.2205ZM58.9023 15.7785C58.9023 15.7785 58.6299 15.5166 58.0851 14.9927C57.5403 14.4689 56.4926 14.207 54.942 14.207C53.3914 14.207 52.0922 14.7308 51.0445 15.7785C49.9968 16.8262 49.4729 18.1254 49.4729 19.676C49.4729 21.2266 49.9968 22.5467 51.0445 23.6364C52.0922 24.726 53.3914 25.2708 54.942 25.2708C56.4926 25.2708 57.8127 24.726 58.9023 23.6364C59.9919 22.5467 60.5368 21.2266 60.5368 19.676C60.5368 18.1254 59.9919 16.8262 58.9023 15.7785ZM38.0319 57.4565C38.0319 56.4507 37.7805 55.5287 37.2776 54.6905C36.7747 53.8523 36.1041 53.1818 35.266 52.6789C34.4278 52.176 33.5058 51.9246 32.5 51.9246C31.4942 51.9246 30.5722 52.176 29.734 52.6789C28.8959 53.1818 28.2253 53.8523 27.7224 54.6905C27.2195 55.5287 26.9681 56.4507 26.9681 57.4565C26.9681 58.4623 27.2195 59.3843 27.7224 60.2224C28.2253 61.0606 28.8959 61.7311 29.734 62.234C30.5722 62.7369 31.4942 62.9884 32.5 62.9884C34.0087 62.9884 35.3079 62.4436 36.3975 61.354C37.4871 60.2643 38.0319 58.9652 38.0319 57.4565ZM51.0445 49.5986C51.0445 49.5986 51.3064 49.8606 51.8303 50.3844C52.3541 50.9083 53.3914 51.1702 54.942 51.1702C56.4926 51.1702 57.7917 50.6463 58.8395 49.5986C59.8872 48.5509 60.411 47.2518 60.411 45.7012C60.411 44.1505 59.8872 42.8304 58.8395 41.7408C57.7917 40.6512 56.4926 40.1064 54.942 40.1064C53.3914 40.1064 52.0922 40.6512 51.0445 41.7408C49.9968 42.8304 49.4729 44.1505 49.4729 45.7012C49.4729 47.2518 49.9968 48.5509 51.0445 49.5986ZM34.0087 58.0851C34.5954 58.0851 34.8888 58.3994 34.8888 59.028C34.8888 59.6567 34.5954 59.971 34.0087 59.971H30.9913C30.4046 59.971 30.1112 59.6567 30.1112 59.028C30.1112 58.3994 30.4046 58.0851 30.9913 58.0851H34.0087ZM51.9874 44.7582C52.5741 44.7582 52.8675 45.0725 52.8675 45.7012C52.8675 46.3298 52.5741 46.6441 51.9874 46.6441H51.8617C51.1912 46.6441 50.8559 46.3298 50.8559 45.7012C50.8559 45.0725 51.1912 44.7582 51.8617 44.7582H51.9874ZM38.5348 31.6828C39.2054 31.6828 39.5406 32.018 39.5406 32.6886C39.5406 33.3591 39.2054 33.6944 38.5348 33.6944H26.4652C25.7946 33.6944 25.4594 33.3591 25.4594 32.6886C25.4594 32.018 25.7946 31.6828 26.4652 31.6828H38.5348ZM28.854 35.4545H36.146C36.8166 35.4545 37.1518 35.7689 37.1518 36.3975C37.1518 37.0261 36.8166 37.3404 36.146 37.3404H28.854C28.1834 37.3404 27.8482 37.0261 27.8482 36.3975C27.8482 35.7689 28.1834 35.4545 28.854 35.4545ZM52.4903 19.1102C51.9036 19.1102 51.6103 18.7959 51.6103 18.1673C51.6103 17.5387 51.9036 17.2244 52.4903 17.2244H57.3936C57.9803 17.2244 58.2737 17.5387 58.2737 18.1673C58.2737 18.7959 57.9803 19.1102 57.3936 19.1102H52.4903ZM38.5348 28.0367C39.2054 28.0367 39.5406 28.3511 39.5406 28.9797C39.5406 29.6083 39.2054 29.9226 38.5348 29.9226H26.4652C25.7946 29.9226 25.4594 29.6083 25.4594 28.9797C25.4594 28.3511 25.7946 28.0367 26.4652 28.0367H38.5348ZM56.3878 20.2418C57.0584 20.2418 57.3936 20.5561 57.3936 21.1847C57.3936 21.8133 57.0584 22.1277 56.3878 22.1277H53.4961C52.8256 22.1277 52.4903 21.8133 52.4903 21.1847C52.4903 20.5561 52.8256 20.2418 53.4961 20.2418H56.3878Z" fill="#1F12FC"/>
    </g>
    <defs>
        <clipPath id="clip0_1_475">
            <rect width="65" height="65" fill="white"/>
        </clipPath>
    </defs>
</svg>