<svg width="65" height="65" viewBox="0 0 65 65" fill="none" xmlns="http://www.w3.org/2000/svg">
    <path d="M54.5019 58.965C54.5019 58.965 54.3553 58.8183 54.0619 58.525C53.7686 58.2316 53.6219 57.6659 53.6219 56.8277C53.6219 55.9895 53.9152 55.2771 54.5019 54.6904C55.0887 54.1036 55.8011 53.8103 56.6393 53.8103C57.4775 53.8103 58.1899 54.1036 58.7766 54.6904C59.3633 55.2771 59.6567 55.9895 59.6567 56.8277C59.6567 57.6659 59.3633 58.3783 58.7766 58.965C58.1899 59.5517 57.4775 59.8451 56.6393 59.8451C55.8011 59.8451 55.0887 59.5517 54.5019 58.965ZM56.6393 57.8335C56.6393 57.8335 56.8069 57.8335 57.1422 57.8335C57.4775 57.8335 57.6451 57.4982 57.6451 56.8277C57.6451 56.1572 57.3098 55.8219 56.6393 55.8219C55.9687 55.8219 55.6335 56.1572 55.6335 56.8277C55.6335 57.4982 55.9687 57.8335 56.6393 57.8335ZM6.22342 52.9302C6.22342 52.9302 6.07674 52.7835 5.78338 52.4902C5.49002 52.1968 5.34334 51.631 5.34334 50.7929C5.34334 49.9547 5.6367 49.2423 6.22342 48.6555C6.81014 48.0688 7.52258 47.7755 8.36075 47.7755C9.19892 47.7755 9.91136 48.0688 10.4981 48.6555C11.0848 49.2423 11.3782 49.9547 11.3782 50.7929C11.3782 51.631 11.0848 52.3435 10.4981 52.9302C9.91136 53.5169 9.19892 53.8103 8.36075 53.8103C7.52258 53.8103 6.81014 53.5169 6.22342 52.9302ZM8.36075 51.7987C8.36075 51.7987 8.52838 51.7987 8.86365 51.7987C9.19892 51.7987 9.36655 51.4634 9.36655 50.7929C9.36655 50.1223 9.03128 49.7871 8.36075 49.7871C7.69021 49.7871 7.35495 50.1223 7.35495 50.7929C7.35495 51.4634 7.69021 51.7987 8.36075 51.7987ZM57.7708 29.671H49.5987C49.431 32.1017 48.8024 34.4486 47.7128 36.7116H54.6277C55.4658 36.7116 56.1783 37.005 56.765 37.5917C57.3517 38.1784 57.6451 38.8909 57.6451 39.729V49.9128C59.3214 50.1642 60.7463 50.9396 61.9197 52.2387C63.0932 53.5379 63.6799 55.0675 63.6799 56.8277C63.6799 58.7555 62.9884 60.4109 61.6054 61.7938C60.2225 63.1768 58.5671 63.8683 56.6393 63.8683C54.7115 63.8683 53.0561 63.1768 51.6731 61.7938C50.2901 60.4109 49.5987 58.7555 49.5987 56.8277C49.5987 55.0675 50.1854 53.5379 51.3588 52.2387C52.5323 50.9396 53.9571 50.1642 55.6335 49.9128V39.729C55.6335 39.0585 55.2982 38.7232 54.6277 38.7232H46.5813C45.4916 40.3158 44.2344 41.6987 42.8095 42.8722C41.8875 43.6265 41.217 44.5904 40.7979 45.7639H41.5522C42.3904 45.7639 43.1029 46.0572 43.6896 46.6439C44.2763 47.2307 44.5696 47.9431 44.5696 48.7813C44.5696 49.5356 44.3182 50.2062 43.8153 50.7929C44.3182 51.3796 44.5696 52.0501 44.5696 52.8045C44.5696 53.6426 44.2763 54.3551 43.6896 54.9418C43.1029 55.5285 42.3904 55.8219 41.5522 55.8219H40.5464C40.5464 58.0011 39.7502 59.887 38.1577 61.4795C36.5651 63.072 34.6793 63.8683 32.5 63.8683C30.3208 63.8683 28.4349 63.072 26.8424 61.4795C25.2499 59.887 24.4536 58.0011 24.4536 55.8219H23.4478C22.6096 55.8219 21.8972 55.5285 21.3105 54.9418C20.7237 54.3551 20.4304 53.6426 20.4304 52.8045C20.4304 52.0501 20.6818 51.3796 21.1847 50.7929C20.6818 50.2062 20.4304 49.5356 20.4304 48.7813C20.4304 47.9431 20.7237 47.2307 21.3105 46.6439C21.8972 46.0572 22.6096 45.7639 23.4478 45.7639H24.2021C23.7831 44.5904 23.1125 43.6265 22.1905 42.8722C21.1009 41.9502 20.0951 40.9025 19.1731 39.729H10.3724C9.70182 39.729 9.36655 40.0643 9.36655 40.7348V43.878C11.0429 44.1294 12.4678 44.9047 13.6412 46.2039C14.8146 47.5031 15.4014 49.0327 15.4014 50.7929C15.4014 52.7207 14.7099 54.376 13.3269 55.759C11.9439 57.142 10.2885 57.8335 8.36075 57.8335C6.43296 57.8335 4.77758 57.142 3.3946 55.759C2.01162 54.376 1.32013 52.7207 1.32013 50.7929C1.32013 49.0327 1.90685 47.5031 3.08028 46.2039C4.25372 44.9047 5.67861 44.1294 7.35495 43.878V40.7348C7.35495 39.8967 7.6483 39.1842 8.23502 38.5975C8.82174 38.0108 9.53419 37.7174 10.3724 37.7174H17.7901C16.3653 35.2029 15.569 32.5208 15.4014 29.671H7.22922C6.72632 31.0121 5.76242 31.6826 4.33754 31.6826C3.49937 31.6826 2.78693 31.3893 2.20021 30.8025C1.61349 30.2158 1.32013 29.5034 1.32013 28.6652C1.32013 27.827 1.61349 27.1146 2.20021 26.5279C2.78693 25.9412 3.49937 25.6478 4.33754 25.6478C5.76242 25.6478 6.72632 26.3183 7.22922 27.6594H15.4014C15.569 24.7258 16.4491 22.0437 18.0416 19.613H10.3724C9.53419 19.613 8.82174 19.3196 8.23502 18.7329C7.6483 18.1462 7.35495 17.4337 7.35495 16.5956V13.4524C6.18151 13.201 5.21762 12.6143 4.46326 11.6923C3.70891 10.7703 3.33173 9.7226 3.33173 8.54916C3.33173 7.12427 3.81368 5.92988 4.77758 4.96599C5.74147 4.00209 6.93586 3.52014 8.36075 3.52014C9.78564 3.52014 10.98 4.00209 11.9439 4.96599C12.9078 5.92988 13.3898 7.12427 13.3898 8.54916C13.3898 9.13587 13.285 9.70164 13.0754 10.2464C12.8659 10.7913 12.5935 11.2942 12.2582 11.7552C11.923 12.2161 11.5039 12.5933 11.001 12.8867C10.4981 13.18 9.95327 13.3686 9.36655 13.4524V16.5956C9.36655 17.2661 9.70182 17.6014 10.3724 17.6014H19.4246C22.6096 13.9134 26.6328 11.9018 31.4942 11.5666V7.41763C30.1531 6.91473 29.4826 5.95084 29.4826 4.52595C29.4826 3.68778 29.776 2.97533 30.3627 2.38861C30.9494 1.8019 31.6618 1.50854 32.5 1.50854C33.3382 1.50854 34.0506 1.8019 34.6373 2.38861C35.2241 2.97533 35.5174 3.68778 35.5174 4.52595C35.5174 5.95084 34.8469 6.91473 33.5058 7.41763V11.5666C38.3672 11.9018 42.3904 13.9134 45.5755 17.6014H50.7302C51.0655 17.6014 51.3169 17.5176 51.4845 17.3499L54.5019 14.3325C53.9152 13.4944 53.6219 12.5724 53.6219 11.5666C53.6219 10.1417 54.1038 8.94729 55.0677 7.98339C56.0316 7.0195 57.226 6.53755 58.6509 6.53755C60.0758 6.53755 61.2702 7.0195 62.2341 7.98339C63.198 8.94729 63.6799 10.1417 63.6799 11.5666C63.6799 12.9915 63.198 14.1858 62.2341 15.1497C61.2702 16.1136 60.0758 16.5956 58.6509 16.5956C57.6451 16.5956 56.7231 16.3022 55.8849 15.7155L52.8675 18.7329C52.2808 19.3196 51.5684 19.613 50.7302 19.613H46.9584C48.5509 22.0437 49.431 24.7258 49.5987 27.6594H57.7708C58.2737 26.3183 59.2376 25.6478 60.6625 25.6478C61.5007 25.6478 62.2131 25.9412 62.7998 26.5279C63.3865 27.1146 63.6799 27.827 63.6799 28.6652C63.6799 29.5034 63.3865 30.2158 62.7998 30.8025C62.2131 31.3893 61.5007 31.6826 60.6625 31.6826C59.2376 31.6826 58.2737 31.0121 57.7708 29.671ZM60.7882 9.42923C60.7882 9.42923 60.6415 9.28255 60.3482 8.9892C60.0548 8.69584 59.4891 8.54916 58.6509 8.54916C57.8127 8.54916 57.1003 8.84252 56.5136 9.42923C55.9268 10.016 55.6335 10.7284 55.6335 11.5666C55.6335 12.4047 55.9268 13.1172 56.5136 13.7039C57.1003 14.2906 57.8127 14.584 58.6509 14.584C59.4891 14.584 60.2015 14.2906 60.7882 13.7039C61.3749 13.1172 61.6683 12.4047 61.6683 11.5666C61.6683 10.7284 61.3749 10.016 60.7882 9.42923ZM6.22342 6.41183C6.22342 6.41183 6.07674 6.55851 5.78338 6.85186C5.49002 7.14522 5.34334 7.71099 5.34334 8.54916C5.34334 9.38732 5.6367 10.0998 6.22342 10.6865C6.81014 11.2732 7.52258 11.5666 8.36075 11.5666C9.19892 11.5666 9.91136 11.2732 10.4981 10.6865C11.0848 10.0998 11.3782 9.38732 11.3782 8.54916C11.3782 7.71099 11.0848 6.99855 10.4981 6.41183C9.91136 5.82511 9.19892 5.53175 8.36075 5.53175C7.52258 5.53175 6.81014 5.82511 6.22342 6.41183ZM11.9439 54.376C11.9439 54.376 12.1849 54.1351 12.6668 53.6531C13.1488 53.1712 13.3898 52.2178 13.3898 50.7929C13.3898 49.368 12.9078 48.1736 11.9439 47.2097C10.98 46.2458 9.78564 45.7639 8.36075 45.7639C6.93586 45.7639 5.74147 46.2458 4.77758 47.2097C3.81368 48.1736 3.33173 49.368 3.33173 50.7929C3.33173 52.2178 3.81368 53.4122 4.77758 54.376C5.74147 55.3399 6.93586 55.8219 8.36075 55.8219C9.78564 55.8219 10.98 55.3399 11.9439 54.376ZM60.2225 60.4109C60.2225 60.4109 60.4634 60.1699 60.9454 59.6879C61.4273 59.206 61.6683 58.2526 61.6683 56.8277C61.6683 55.4028 61.1863 54.2084 60.2225 53.2445C59.2586 52.2806 58.0642 51.7987 56.6393 51.7987C55.2144 51.7987 54.02 52.2806 53.0561 53.2445C52.0922 54.2084 51.6103 55.4028 51.6103 56.8277C51.6103 58.2526 52.0922 59.447 53.0561 60.4109C54.02 61.3748 55.2144 61.8567 56.6393 61.8567C58.0642 61.8567 59.2586 61.3748 60.2225 60.4109ZM61.6683 28.6652C61.6683 28.6652 61.6683 28.4976 61.6683 28.1623C61.6683 27.827 61.333 27.6594 60.6625 27.6594C59.992 27.6594 59.6567 27.9947 59.6567 28.6652C59.6567 29.3357 59.992 29.671 60.6625 29.671C61.333 29.671 61.6683 29.3357 61.6683 28.6652ZM33.5058 4.52595C33.5058 4.52595 33.5058 4.35831 33.5058 4.02304C33.5058 3.68778 33.1705 3.52014 32.5 3.52014C31.8295 3.52014 31.4942 3.85541 31.4942 4.52595C31.4942 5.19649 31.8295 5.53175 32.5 5.53175C33.1705 5.53175 33.5058 5.19649 33.5058 4.52595ZM3.33173 28.6652C3.33173 28.6652 3.33173 28.8328 3.33173 29.1681C3.33173 29.5034 3.667 29.671 4.33754 29.671C5.00807 29.671 5.34334 29.3357 5.34334 28.6652C5.34334 27.9947 5.00807 27.6594 4.33754 27.6594C3.667 27.6594 3.33173 27.9947 3.33173 28.6652ZM28.2254 60.0965C28.2254 60.0965 28.5187 60.3899 29.1054 60.9766C29.6921 61.5633 30.8237 61.8567 32.5 61.8567C34.1764 61.8567 35.6012 61.27 36.7747 60.0965C37.9481 58.9231 38.5348 57.4982 38.5348 55.8219H26.4652C26.4652 57.4982 27.0519 58.9231 28.2254 60.0965ZM41.5522 53.8103C42.2228 53.8103 42.558 53.475 42.558 52.8045C42.558 52.1339 42.2228 51.7987 41.5522 51.7987H23.4478C22.7773 51.7987 22.442 52.1339 22.442 52.8045C22.442 53.475 22.7773 53.8103 23.4478 53.8103H41.5522ZM41.5522 49.7871C42.2228 49.7871 42.558 49.4518 42.558 48.7813C42.558 48.1107 42.2228 47.7755 41.5522 47.7755H23.4478C22.7773 47.7755 22.442 48.1107 22.442 48.7813C22.442 49.4518 22.7773 49.7871 23.4478 49.7871H41.5522ZM28.7283 37.7174C29.2312 37.7174 29.6921 37.8432 30.1112 38.0946C30.5303 38.3461 30.8656 38.6813 31.117 39.1004C31.3685 39.5195 31.4942 39.9805 31.4942 40.4834V45.7639H33.5058V40.4834C33.5058 39.9805 33.6315 39.5195 33.883 39.1004C34.1344 38.6813 34.4697 38.3461 34.8888 38.0946C35.3079 37.8432 35.7689 37.7174 36.2718 37.7174C37.1099 37.7174 37.8433 37.445 38.472 36.9002C39.1006 36.3554 39.4568 35.7058 39.5406 34.9515C39.6245 34.1133 39.373 33.359 38.7863 32.6884C38.1996 32.0179 37.4452 31.6826 36.5232 31.6826V29.671C37.9481 29.671 39.1635 30.1739 40.1693 31.1797C41.0912 30.593 41.5522 29.7548 41.5522 28.6652C41.5522 27.2403 40.8817 26.2764 39.5406 25.7735L38.2834 25.3964L39.0377 24.2648C39.373 23.7619 39.5406 23.2171 39.5406 22.6304C39.5406 21.7922 39.2473 21.0798 38.6606 20.4931C38.0738 19.9063 37.3614 19.613 36.5232 19.613C35.6851 19.613 34.9726 19.9063 34.3859 20.4931C33.7992 21.0798 33.5058 21.7922 33.5058 22.6304H31.4942C31.4942 21.7922 31.2009 21.0798 30.6141 20.4931C30.0274 19.9063 29.315 19.613 28.4768 19.613C27.6386 19.613 26.9262 19.9063 26.3395 20.4931C25.7528 21.0798 25.4594 21.7922 25.4594 22.6304C25.4594 23.4686 25.7528 24.181 26.3395 24.7677C26.9262 25.3544 27.6386 25.6478 28.4768 25.6478V27.6594C27.0519 27.6594 25.8366 27.1565 24.8308 26.1507C23.9088 26.7374 23.4478 27.5756 23.4478 28.6652C23.4478 30.0901 24.1183 31.054 25.4594 31.5569L26.7166 31.9341L25.9623 33.0656C25.5432 33.6523 25.3756 34.3648 25.4594 35.2029C25.627 35.9573 26.0042 36.565 26.5909 37.0259C27.1776 37.4869 27.8901 37.7174 28.7283 37.7174ZM41.5522 41.2377C43.3962 39.8129 44.863 37.9689 45.9526 35.7058C47.0422 33.4428 47.5871 31.0959 47.5871 28.6652C47.5871 24.4744 46.1203 20.9122 43.1867 17.9786C40.2531 15.045 36.6909 13.5782 32.5 13.5782C28.3092 13.5782 24.747 15.045 21.8134 17.9786C18.8798 20.9122 17.413 24.4744 17.413 28.6652C17.413 30.2577 17.6644 31.8293 18.1673 33.3799C18.6702 34.9305 19.3617 36.3973 20.2418 37.7803C21.1219 39.1633 22.1905 40.3158 23.4478 41.2377C24.8727 42.4112 25.7947 43.9199 26.2137 45.7639H29.4826V40.4834C29.4826 39.9805 29.2312 39.729 28.7283 39.729C27.3872 39.729 26.2347 39.3309 25.2708 38.5347C24.3069 37.7384 23.7411 36.7535 23.5735 35.5801C23.4059 34.6581 23.4897 33.778 23.825 32.9399C22.2324 31.9341 21.4362 30.5092 21.4362 28.6652C21.4362 26.8212 22.2324 25.3964 23.825 24.3906C23.5735 23.8038 23.4478 23.2171 23.4478 22.6304C23.4478 21.2055 23.9297 20.0111 24.8936 19.0472C25.8575 18.0833 27.0519 17.6014 28.4768 17.6014C30.1531 17.6014 31.4942 18.2719 32.5 19.613C33.5058 18.2719 34.8469 17.6014 36.5232 17.6014C37.9481 17.6014 39.1425 18.0833 40.1064 19.0472C41.0703 20.0111 41.5522 21.2055 41.5522 22.6304C41.5522 23.2171 41.4265 23.8038 41.1751 24.3906C42.7676 25.3964 43.5638 26.8212 43.5638 28.6652C43.5638 30.5092 42.7676 31.9341 41.1751 32.9399C41.5103 33.6942 41.6361 34.4486 41.5522 35.2029C41.3846 36.4602 40.7979 37.5288 39.7921 38.4089C38.7863 39.289 37.6548 39.729 36.3975 39.729C35.8108 39.729 35.5174 39.9805 35.5174 40.4834V45.7639H38.7863C39.2054 43.9199 40.1274 42.4112 41.5522 41.2377Z" fill="#1F12FC"/>
</svg>