<svg width="65" height="65" viewBox="0 0 65 65" fill="none" xmlns="http://www.w3.org/2000/svg">
    <g clip-path="url(#clip0_1_408)">
        <path d="M64.56 18.1044C64.56 20.9542 63.9313 23.6154 62.6741 26.088C61.4168 28.5606 59.6776 30.6141 57.4565 32.2485C55.2353 33.883 52.7837 34.9516 50.1016 35.4545V37.8433H52.1132V59.5938C52.1132 61.0187 51.6103 62.234 50.6045 63.2398C49.5987 64.2456 48.3833 64.7485 46.9584 64.7485C45.5335 64.7485 44.3182 64.2456 43.3124 63.2398C42.3066 62.234 41.8037 61.0187 41.8037 59.5938V37.8433H43.8153V35.4545C39.7083 34.7002 36.2718 32.6886 33.5058 29.4197C30.7398 26.1509 29.3569 22.3791 29.3569 18.1044C29.3569 15.087 30.1112 12.2373 31.6199 9.55515L28.6025 8.67508C28.0158 9.42943 27.2195 9.80661 26.2137 9.80661C25.7947 9.80661 25.3337 9.72279 24.8308 9.55515L21.8133 14.8356C21.981 15.1708 22.0648 15.5899 22.0648 16.0928C22.0648 16.931 21.7714 17.6434 21.1847 18.2302C20.598 18.8169 19.8646 19.1102 18.9845 19.1102C18.1045 19.1102 17.3711 18.8169 16.7843 18.2302C16.1976 17.6434 15.9043 16.931 15.9043 16.0928C15.9043 15.5899 15.9881 15.1289 16.1557 14.7099L12.0068 9.55515C11.5877 9.72279 11.1267 9.80661 10.6238 9.80661C10.6238 9.80661 10.4981 9.80661 10.2466 9.80661L5.72051 19.1102C6.30722 19.697 6.60058 20.4094 6.60058 21.2476C6.60058 22.0019 6.34913 22.6725 5.84623 23.2592L9.36654 29.294C11.7972 28.0367 14.3536 27.4081 17.0358 27.4081C21.6457 27.4081 25.5642 29.0425 28.7911 32.3114C32.0181 35.5803 33.6315 39.5197 33.6315 44.1296C33.6315 44.9678 33.5477 45.8897 33.3801 46.8955L33.2544 47.9013L18.1673 45.2611L20.8075 60.3482L19.676 60.4739C18.754 60.6415 17.874 60.7253 17.0358 60.7253C12.4259 60.7253 8.48646 59.1119 5.2176 55.8849C1.94875 52.658 0.314316 48.7395 0.314316 44.1296C0.314316 41.2798 0.963897 38.6605 2.26306 36.2718C3.56222 33.883 5.34333 31.9342 7.60639 30.4255L3.96035 24.265C3.79272 24.265 3.62508 24.265 3.45745 24.265C2.61928 24.265 1.88588 23.9716 1.25726 23.3849C0.628629 22.7982 0.314316 22.0857 0.314316 21.2476C0.314316 20.4094 0.628629 19.676 1.25726 19.0474C1.88588 18.4188 2.61928 18.1044 3.45745 18.1044C3.45745 18.1044 3.58317 18.1044 3.83463 18.1044L8.48646 8.92653C7.89974 8.25599 7.60639 7.50164 7.60639 6.66347C7.60639 6.24439 7.6902 5.84626 7.85784 5.46908C8.02547 5.09191 8.23501 4.77759 8.48646 4.52614C8.73791 4.27469 9.05223 4.06515 9.4294 3.89752C9.80658 3.72988 10.2047 3.64607 10.6238 3.64607C11.5458 3.64607 12.3001 3.93942 12.8869 4.52614C13.4736 5.11286 13.7669 5.8253 13.7669 6.66347C13.7669 7.16638 13.6831 7.62737 13.5155 8.04645L17.6644 13.2012C18.0835 13.0335 18.5235 12.9497 18.9845 12.9497C19.4455 12.9497 19.8856 13.0335 20.3046 13.2012L23.3221 7.92073C23.1544 7.58546 23.0706 7.18733 23.0706 6.72634C23.0706 6.26534 23.1544 5.84626 23.3221 5.46908C23.4897 5.09191 23.7202 4.77759 24.0135 4.52614C24.3069 4.27469 24.6422 4.06515 25.0193 3.89752C25.3965 3.72988 25.7947 3.64607 26.2137 3.64607C27.0519 3.64607 27.7853 3.93942 28.4139 4.52614C29.0426 5.11286 29.3569 5.8253 29.3569 6.66347L32.7515 7.66928C36.2718 2.89171 41.0074 0.50293 46.9584 0.50293C51.8198 0.50293 55.9687 2.22118 59.4052 5.65767C62.8417 9.09416 64.56 13.2431 64.56 18.1044ZM18.4188 58.588L16.03 45.0097L5.84623 53.559C8.77982 56.9955 12.5097 58.7137 17.0358 58.7137C17.4549 58.7137 17.9159 58.6718 18.4188 58.588ZM31.6199 44.1296C31.6199 40.274 30.2998 36.9423 27.6596 34.1344C25.0193 31.3266 21.7714 29.7969 17.9159 29.5454V43.1238L31.4942 45.5126C31.578 45.0097 31.6199 44.5487 31.6199 44.1296ZM15.9043 29.5454C13.9765 29.7131 12.1325 30.216 10.3723 31.0541L11.6296 33.0658L9.74372 34.1973L8.61219 32.1857C4.50516 35.1193 2.45165 39.1006 2.45165 44.1296C2.45165 46.8955 3.16409 49.452 4.58898 51.7988L15.9043 42.4952V29.5454ZM3.45745 20.2418C3.45745 20.2418 3.28982 20.2418 2.95455 20.2418C2.61928 20.2418 2.45165 20.577 2.45165 21.2476C2.45165 21.9181 2.78691 22.2534 3.45745 22.2534C4.12798 22.2534 4.46325 21.9181 4.46325 21.2476C4.46325 20.577 4.12798 20.2418 3.45745 20.2418ZM9.61799 6.72634C9.61799 6.72634 9.61799 6.90445 9.61799 7.26067C9.61799 7.61689 9.97421 7.795 10.6867 7.795C11.3991 7.795 11.7553 7.43878 11.7553 6.72634C11.7553 6.01389 11.3991 5.65767 10.6867 5.65767C9.97421 5.65767 9.61799 6.01389 9.61799 6.72634ZM17.9159 16.03C17.9159 16.03 17.9159 16.2081 17.9159 16.5643C17.9159 16.9205 18.2721 17.0986 18.9845 17.0986C19.697 17.0986 20.0532 16.7424 20.0532 16.03C20.0532 15.3175 19.697 14.9613 18.9845 14.9613C18.2721 14.9613 17.9159 15.3175 17.9159 16.03ZM25.2079 6.72634C25.2079 6.72634 25.2079 6.90445 25.2079 7.26067C25.2079 7.61689 25.5432 7.795 26.2137 7.795C26.8843 7.795 27.2195 7.43878 27.2195 6.72634C27.2195 6.01389 26.8843 5.65767 26.2137 5.65767C25.5432 5.65767 25.2079 6.01389 25.2079 6.72634ZM31.3685 18.1044C31.3685 20.9542 32.06 23.5735 33.4429 25.9623C34.8259 28.3511 36.7118 30.2369 39.1006 31.6199C41.4894 33.0029 44.1086 33.6944 46.9584 33.6944C51.2331 33.6944 54.8791 32.1647 57.8965 29.1054C60.9139 26.0461 62.4226 22.3791 62.4226 18.1044C62.4226 13.8298 60.9139 10.1628 57.8965 7.10351C54.8791 4.0442 51.2331 2.51454 46.9584 2.51454C42.0132 2.51454 37.99 4.44233 34.8888 8.2979L37.0261 8.92653C39.7083 6.07675 43.019 4.65187 46.9584 4.65187C50.6464 4.65187 53.8104 5.97198 56.4507 8.61221C59.0909 11.2524 60.411 14.4165 60.411 18.1044C60.411 21.3733 59.3633 24.265 57.2679 26.7795L55.6335 25.5222C57.3936 23.343 58.2737 20.8704 58.2737 18.1044C58.2737 15.0032 57.1631 12.3211 54.942 10.058C52.7208 7.795 50.0596 6.66347 46.9584 6.66347C44.0248 6.66347 41.4684 7.66928 39.2892 9.68088L47.587 12.1953C48.1738 11.2734 49.0119 10.8124 50.1016 10.8124C50.9397 10.8124 51.6522 11.1267 52.2389 11.7553C52.8256 12.3839 53.119 13.1173 53.119 13.9555C53.119 14.7937 52.8256 15.5271 52.2389 16.1557C51.6522 16.7843 50.9397 17.0986 50.1016 17.0986C49.5987 17.0986 49.1377 16.9729 48.7186 16.7215L44.5696 20.8704C44.7373 21.3733 44.8211 21.8343 44.8211 22.2534C44.8211 23.0915 44.5277 23.8249 43.941 24.4536C43.3543 25.0822 42.6418 25.3965 41.8037 25.3965C41.217 25.3965 40.6931 25.2498 40.2321 24.9565C39.7711 24.6631 39.3939 24.2859 39.1006 23.8249C38.8072 23.3639 38.6605 22.8401 38.6605 22.2534C38.6605 21.4152 38.9539 20.6818 39.5406 20.0532C40.1273 19.4246 40.8817 19.1102 41.8037 19.1102C42.2228 19.1102 42.6418 19.236 43.0609 19.4874L47.2099 15.3385C47.0422 14.9194 46.9584 14.5003 46.9584 14.0812L37.7805 11.3153C36.2718 13.3269 35.5174 15.5899 35.5174 18.1044C35.5174 21.2895 36.628 23.9926 38.8491 26.2137C41.0703 28.4349 43.7734 29.5454 46.9584 29.5454C49.7244 29.5454 52.1551 28.6235 54.2505 26.7795L55.6335 28.4139C53.119 30.5093 50.2273 31.5571 46.9584 31.5571C43.2705 31.5571 40.1064 30.2369 37.4662 27.5967C34.8259 24.9565 33.5058 21.7924 33.5058 18.1044C33.5058 15.4223 34.2183 12.9497 35.6431 10.6866L33.6315 10.1837C32.1228 12.6144 31.3685 15.2547 31.3685 18.1044ZM50.0387 12.9497C50.0387 12.9497 49.8606 12.9497 49.5044 12.9497C49.1481 12.9497 48.97 13.285 48.97 13.9555C48.97 14.626 49.3262 14.9613 50.0387 14.9613C50.7511 14.9613 51.1074 14.626 51.1074 13.9555C51.1074 13.285 50.7511 12.9497 50.0387 12.9497ZM41.7408 23.2592C41.7408 23.2592 41.9189 23.2592 42.2752 23.2592C42.6314 23.2592 42.8095 22.9239 42.8095 22.2534C42.8095 21.5828 42.4533 21.2476 41.7408 21.2476C41.0284 21.2476 40.6721 21.5828 40.6721 22.2534C40.6721 22.9239 41.0284 23.2592 41.7408 23.2592ZM50.1016 39.8549H43.8153V41.9923H50.1016V39.8549ZM44.7582 61.7311C44.7582 61.7311 44.9154 61.8778 45.2297 62.1712C45.544 62.4645 46.1203 62.6112 46.9584 62.6112C47.7966 62.6112 48.53 62.3179 49.1586 61.7311C49.7872 61.1444 50.1016 60.432 50.1016 59.5938V44.0039H43.8153V59.5938C43.8153 60.432 44.1296 61.1444 44.7582 61.7311ZM47.9642 37.8433V35.706C47.3775 35.706 47.0422 35.706 46.9584 35.706C46.8746 35.706 46.5393 35.706 45.9526 35.706V37.8433H47.9642ZM22.9449 64.8743L19.9275 47.0213L37.7805 50.0387L37.6547 51.0445C37.068 54.5648 35.5174 57.5822 33.0029 60.0967C30.4884 62.6112 27.471 64.1618 23.9507 64.7485L22.9449 64.8743ZM24.5793 62.4855C26.3395 62.0664 27.9529 61.333 29.4197 60.2853C30.8865 59.2376 32.1438 57.9803 33.1915 56.5135C34.2392 55.0467 34.9726 53.4333 35.3917 51.6731L22.442 49.5358L24.5793 62.4855ZM46.9584 58.4623C46.9584 58.4623 47.1261 58.4623 47.4613 58.4623C47.7966 58.4623 47.9642 58.8185 47.9642 59.5309C47.9642 60.2434 47.629 60.5996 46.9584 60.5996C46.2879 60.5996 45.9526 60.2434 45.9526 59.5309C45.9526 58.8185 46.2879 58.4623 46.9584 58.4623Z" fill="#1F12FC"/>
    </g>
    <defs>
        <clipPath id="clip0_1_408">
            <rect width="65" height="65" fill="white"/>
        </clipPath>
    </defs>
</svg>