<svg width="65" height="65" viewBox="0 0 65 65" fill="none" xmlns="http://www.w3.org/2000/svg">
    <path d="M24.5793 35.8316C24.5793 35.8316 24.4326 35.9782 24.1393 36.2716C23.8459 36.565 23.2802 36.7116 22.442 36.7116C21.6038 36.7116 20.8914 36.4183 20.3047 35.8316C19.7179 35.2448 19.4246 34.5324 19.4246 33.6942C19.4246 32.8561 19.7179 32.1436 20.3047 31.5569C20.8914 30.9702 21.6038 30.6768 22.442 30.6768C23.2802 30.6768 23.9926 30.9702 24.5793 31.5569C25.166 32.1436 25.4594 32.8561 25.4594 33.6942C25.4594 34.5324 25.166 35.2448 24.5793 35.8316ZM23.4478 33.6942C23.4478 33.6942 23.4478 33.5266 23.4478 33.1913C23.4478 32.8561 23.1125 32.6884 22.442 32.6884C21.7715 32.6884 21.4362 33.0237 21.4362 33.6942C21.4362 34.3648 21.7715 34.7 22.442 34.7C23.1125 34.7 23.4478 34.3648 23.4478 33.6942ZM16.5329 31.5569C16.5329 31.5569 16.6796 31.7036 16.9729 31.9969C17.2663 32.2903 17.413 32.8561 17.413 33.6942C17.413 34.5324 17.1196 35.2448 16.5329 35.8316C15.9462 36.4183 15.2337 36.7116 14.3956 36.7116C13.5574 36.7116 12.845 36.4183 12.2582 35.8316C11.6715 35.2448 11.3782 34.5324 11.3782 33.6942C11.3782 32.8561 11.6715 32.1436 12.2582 31.5569C12.845 30.9702 13.5574 30.6768 14.3956 30.6768C15.2337 30.6768 15.9462 30.9702 16.5329 31.5569ZM13.3898 33.6942C13.3898 33.6942 13.3898 33.8619 13.3898 34.1971C13.3898 34.5324 13.725 34.7 14.3956 34.7C15.0661 34.7 15.4014 34.3648 15.4014 33.6942C15.4014 33.0237 15.0661 32.6884 14.3956 32.6884C13.725 32.6884 13.3898 33.0237 13.3898 33.6942ZM25.4594 49.7871V59.8451H11.3782V49.7871H25.4594ZM23.4478 57.8335V51.7987H13.3898V57.8335H23.4478ZM50.7302 10.6865C50.7302 10.6865 50.5835 10.8332 50.2901 11.1265C49.9968 11.4199 49.431 11.5666 48.5929 11.5666C47.7547 11.5666 47.0422 11.2732 46.4555 10.6865C45.8688 10.0998 45.5755 9.38732 45.5755 8.54916C45.5755 7.71099 45.8688 6.99855 46.4555 6.41183C47.0422 5.82511 47.7547 5.53175 48.5929 5.53175C49.431 5.53175 50.1435 5.82511 50.7302 6.41183C51.3169 6.99855 51.6103 7.71099 51.6103 8.54916C51.6103 9.38732 51.3169 10.0998 50.7302 10.6865ZM49.5987 8.54916C49.5987 8.54916 49.5987 8.38152 49.5987 8.04626C49.5987 7.71099 49.2634 7.54335 48.5929 7.54335C47.9223 7.54335 47.5871 7.87862 47.5871 8.54916C47.5871 9.21969 47.9223 9.55497 48.5929 9.55497C49.2634 9.55497 49.5987 9.21969 49.5987 8.54916ZM63.6799 46.5182L60.9139 47.2726C60.7463 47.6078 60.5787 47.9431 60.411 48.2784L61.9197 50.6671L56.5136 56.0733L54.1248 54.5646C53.7895 54.7323 53.4542 54.8999 53.119 55.0675L52.3646 57.8335H44.8211L44.0667 55.0675C43.7315 54.8999 43.3962 54.7323 43.0609 54.5646L40.6722 56.0733L35.266 50.6671L36.7747 48.2784C36.607 47.9431 36.4394 47.6078 36.2718 47.2726L35.1402 47.0211C35.3917 47.6078 35.5174 48.1945 35.5174 48.7813C35.5174 50.4576 34.8469 51.7987 33.5058 52.8045V63.8683H3.33173V52.8045C1.99066 51.7987 1.32013 50.4576 1.32013 48.7813C1.32013 47.3564 1.80208 46.162 2.76597 45.1981C3.72987 44.2342 4.92426 43.7523 6.34914 43.7523C7.43876 43.7523 8.44457 44.0875 9.36655 44.7581C9.86945 44.339 10.4143 44.0456 11.001 43.878L11.2524 43.7523H13.3898V41.4892C11.6296 41.0701 10.2047 40.1481 9.1151 38.7232H8.36075C6.93586 38.7232 5.74147 38.2413 4.77758 37.2774C3.81368 36.3135 3.33173 35.1191 3.33173 33.6942C3.33173 32.2693 3.81368 31.0749 4.77758 30.1111C5.74147 29.1472 6.93586 28.6652 8.36075 28.6652H8.98938L16.6586 5.02886C16.9939 3.93924 17.6016 3.0801 18.4816 2.45148C19.3617 1.82285 20.3466 1.50854 21.4362 1.50854C21.9391 1.50854 22.442 1.59235 22.9449 1.75999C24.7889 2.34671 25.9204 3.60396 26.3395 5.53175H35.5174V3.52014H43.6896C45.0306 2.17907 46.6651 1.50854 48.5929 1.50854C50.5206 1.50854 52.176 2.20003 53.559 3.58301C54.942 4.96598 55.6335 6.62137 55.6335 8.54916C55.6335 11.4827 54.2924 13.6201 51.6103 14.9612V19.613H54.6277C55.4658 19.613 56.1783 19.9063 56.765 20.4931C57.3517 21.0798 57.6451 21.7922 57.6451 22.6304C57.6451 23.72 57.1841 24.5582 56.2621 25.1449C58.5252 26.7374 59.6567 28.9167 59.6567 31.6826V32.437L61.9197 34.8258L60.411 37.2145C60.5787 37.5498 60.7463 37.8851 60.9139 38.2203L63.6799 38.9747V46.5182ZM57.6451 31.6826C57.6451 30.0063 57.0584 28.5814 55.8849 27.408C54.7115 26.2345 53.2866 25.6478 51.6103 25.6478V27.6594C52.6999 27.6594 53.6428 28.0575 54.4391 28.8538C55.2353 29.6501 55.6335 30.593 55.6335 31.6826V33.6942C55.6335 34.6162 55.3401 35.4334 54.7534 36.1459C54.1667 36.8583 53.4542 37.3403 52.6161 37.5917V39.6033C54.041 39.3519 55.2353 38.6813 56.1992 37.5917C57.1631 36.5021 57.6451 35.2029 57.6451 33.6942V31.6826ZM55.6335 42.7464C55.6335 42.0759 55.5497 41.4473 55.382 40.8606C54.2086 41.4473 52.9513 41.7406 51.6103 41.7406H50.6045V35.7058H51.6103C52.197 35.7058 52.6789 35.5172 53.0561 35.1401C53.4333 34.7629 53.6219 34.2809 53.6219 33.6942V31.6826C53.6219 31.0959 53.4333 30.614 53.0561 30.2368C52.6789 29.8596 52.197 29.671 51.6103 29.671V30.6768C51.6103 31.515 51.3169 32.2274 50.7302 32.8141C50.1435 33.4009 49.431 33.6942 48.5929 33.6942C47.7547 33.6942 47.0422 33.4009 46.4555 32.8141C45.8688 32.2274 45.5755 31.515 45.5755 30.6768V29.671C44.9887 29.671 44.5068 29.8596 44.1296 30.2368C43.7524 30.614 43.5638 31.0959 43.5638 31.6826V33.6942C43.5638 34.2809 43.7524 34.7629 44.1296 35.1401C44.5068 35.5172 44.9887 35.7058 45.5755 35.7058H46.5813V41.7406H45.5755C44.2344 41.7406 42.9771 41.4473 41.8037 40.8606C41.6361 41.4473 41.5522 42.0759 41.5522 42.7464C41.5522 44.6742 42.2437 46.3296 43.6267 47.7126C45.0097 49.0956 46.6651 49.7871 48.5929 49.7871C50.5206 49.7871 52.176 49.0956 53.559 47.7126C54.942 46.3296 55.6335 44.6742 55.6335 42.7464ZM37.529 31.6826C37.529 28.9167 38.6606 26.7374 40.9236 25.1449C40.0016 24.5582 39.5406 23.72 39.5406 22.6304C39.5406 21.7922 39.834 21.0798 40.4207 20.4931C41.0074 19.9063 41.7199 19.613 42.558 19.613H45.5755V14.9612C44.8211 14.5421 44.1925 14.0811 43.6896 13.5782H35.5174V11.5666H25.0822L21.5619 22.7561C22.5677 23.5943 23.1544 24.642 23.3221 25.8993C25.0822 26.3183 26.549 27.2403 27.7225 28.6652H28.4768C29.9017 28.6652 31.0961 29.1472 32.06 30.1111C33.0239 31.0749 33.5058 32.2693 33.5058 33.6942C33.5058 35.1191 33.0239 36.3135 32.06 37.2774C31.0961 38.2413 29.9017 38.7232 28.4768 38.7232H27.7225C26.6328 40.1481 25.2079 41.0701 23.4478 41.4892V43.7523H25.5851L25.8366 43.878C26.4233 44.0456 26.9681 44.339 27.471 44.7581C28.393 44.0875 29.3988 43.7523 30.4884 43.7523C31.578 43.7523 32.5838 44.0875 33.5058 44.7581V38.9747L36.2718 38.2203C36.4394 37.8851 36.607 37.5498 36.7747 37.2145L35.266 34.8258L37.529 32.437V31.6826ZM28.854 30.6768C29.2731 31.6826 29.4826 32.6884 29.4826 33.6942C29.4826 34.7 29.2731 35.7058 28.854 36.7116C29.6083 36.544 30.237 36.1878 30.7399 35.643C31.2428 35.0982 31.4942 34.4486 31.4942 33.6942C31.4942 33.1913 31.3894 32.7303 31.1799 32.3112C30.9704 31.8922 30.656 31.5359 30.237 31.2426C29.8179 30.9492 29.3569 30.7606 28.854 30.6768ZM21.3105 25.6478C20.8076 24.3067 19.8437 23.6362 18.4188 23.6362C16.9939 23.6362 16.03 24.3067 15.5271 25.6478H21.3105ZM47.5871 25.6478V30.6768C47.5871 31.3474 47.9223 31.6826 48.5929 31.6826C49.2634 31.6826 49.5987 31.3474 49.5987 30.6768V25.6478H47.5871ZM39.5406 31.6826V33.6942C39.5406 34.7 39.7711 35.622 40.2321 36.4602C40.6931 37.2984 41.3008 37.9898 42.0551 38.5347C42.8095 39.0795 43.6477 39.4357 44.5696 39.6033V37.5917C43.7315 37.3403 43.019 36.8583 42.4323 36.1459C41.8456 35.4334 41.5522 34.6162 41.5522 33.6942V31.6826C41.5522 30.593 41.9504 29.6501 42.7466 28.8538C43.5429 28.0575 44.4858 27.6594 45.5755 27.6594V25.6478C43.8991 25.6478 42.4742 26.2345 41.3008 27.408C40.1274 28.5814 39.5406 30.0063 39.5406 31.6826ZM54.6277 23.6362C55.2982 23.6362 55.6335 23.3009 55.6335 22.6304C55.6335 21.9599 55.2982 21.6246 54.6277 21.6246H42.558C41.8875 21.6246 41.5522 21.9599 41.5522 22.6304C41.5522 23.3009 41.8875 23.6362 42.558 23.6362H45.5755H51.6103H54.6277ZM49.5987 19.613V15.464C49.2634 15.5479 48.9281 15.5898 48.5929 15.5898C48.2576 15.5898 47.9223 15.5479 47.5871 15.464V19.613H49.5987ZM52.176 4.96599C52.176 4.96599 51.9351 4.72501 51.4531 4.24306C50.9712 3.76112 50.0177 3.52014 48.5929 3.52014C47.168 3.52014 45.9736 4.00209 45.0097 4.96599C44.0458 5.92988 43.5638 7.12427 43.5638 8.54916C43.5638 9.97404 44.0458 11.1684 45.0097 12.1323C45.9736 13.0962 47.168 13.5782 48.5929 13.5782C50.0177 13.5782 51.2121 13.0962 52.176 12.1323C53.1399 11.1684 53.6219 9.97404 53.6219 8.54916C53.6219 7.12427 53.1399 5.92988 52.176 4.96599ZM37.529 5.53175V11.5666H42.1809C41.7618 10.6446 41.5522 9.63878 41.5522 8.54916C41.5522 7.45954 41.7618 6.45373 42.1809 5.53175H37.529ZM35.5174 9.55497V7.54335H26.3395C26.2557 7.87862 26.2137 8.04626 26.2137 8.04626L25.7108 9.55497H35.5174ZM18.5445 5.65747L11.8811 26.5279C12.384 26.2764 12.9288 26.0669 13.5155 25.8993C13.6831 24.642 14.2279 23.6152 15.1499 22.819C16.0719 22.0227 17.1615 21.6246 18.4188 21.6246C18.8379 21.6246 19.2569 21.6665 19.676 21.7503L24.3279 7.41763C24.5793 6.66328 24.5165 5.90892 24.1393 5.15457C23.7621 4.40022 23.1544 3.89733 22.3163 3.64587C22.0648 3.56205 21.7715 3.52014 21.4362 3.52014C20.0113 3.52014 19.0474 4.23259 18.5445 5.65747ZM5.34334 33.6942C5.34334 34.1971 5.44811 34.6581 5.65765 35.0772C5.8672 35.4963 6.18151 35.8525 6.60059 36.1459C7.01968 36.4392 7.48067 36.6278 7.98357 36.7116C7.56449 35.7058 7.35495 34.7 7.35495 33.6942C7.35495 32.6884 7.56449 31.6826 7.98357 30.6768C7.56449 30.7606 7.20827 30.8864 6.91491 31.054C6.62155 31.2216 6.34914 31.4312 6.09769 31.6826C5.84624 31.9341 5.65765 32.2484 5.53193 32.6256C5.4062 33.0027 5.34334 33.359 5.34334 33.6942ZM11.1267 29.4196C11.1267 29.4196 10.8333 29.7129 10.2466 30.2996C9.65991 30.8864 9.36655 32.0179 9.36655 33.6942C9.36655 35.3706 9.95327 36.7955 11.1267 37.9689C12.3001 39.1423 13.725 39.729 15.4014 39.729H21.4362C23.1125 39.729 24.5374 39.1423 25.7108 37.9689C26.8843 36.7955 27.471 35.3706 27.471 33.6942C27.471 32.0179 26.8843 30.593 25.7108 29.4196C24.5374 28.2461 23.1125 27.6594 21.4362 27.6594H15.4014C13.725 27.6594 12.3001 28.2461 11.1267 29.4196ZM21.4362 41.7406H15.4014V44.3809L15.6528 44.6323C16.4072 45.3867 17.3292 45.7639 18.4188 45.7639C19.5084 45.7639 20.4304 45.3867 21.1847 44.6323L21.4362 44.3809V41.7406ZM11.6296 45.7639C10.3724 46.2668 9.47132 47.0211 8.92651 48.0269C8.3817 49.0327 8.23502 50.0804 8.48647 51.17L10.2466 61.8567H26.5909L28.3511 51.17C28.6025 50.1642 28.4558 49.1375 27.911 48.0898C27.3662 47.0421 26.4652 46.2668 25.2079 45.7639H22.8192L22.5677 46.0153C21.3943 47.1887 20.0113 47.7755 18.4188 47.7755C16.8263 47.7755 15.4433 47.1887 14.2698 46.0153L14.0184 45.7639H11.6296ZM6.34914 45.7639C5.51097 45.7639 4.79853 46.0572 4.21181 46.6439C3.62509 47.2307 3.33173 47.9431 3.33173 48.7813C3.33173 49.6194 3.62509 50.3319 4.21181 50.9186C4.79853 51.5053 5.51097 51.7987 6.34914 51.7987C6.34914 51.7987 6.39105 51.7987 6.47487 51.7987V51.5472C6.05578 49.5356 6.47487 47.7336 7.73212 46.141C7.31304 45.8896 6.85204 45.7639 6.34914 45.7639ZM5.34334 53.6846V61.8567H8.23502L6.85204 53.8103C6.60059 53.8103 6.43296 53.8103 6.34914 53.8103C6.01388 53.8103 5.67861 53.7684 5.34334 53.6846ZM31.4942 61.8567V53.6846C31.1589 53.7684 30.8237 53.8103 30.4884 53.8103C30.4046 53.8103 30.237 53.8103 29.9855 53.8103L28.6025 61.8567H31.4942ZM30.4884 51.7987C31.3266 51.7987 32.039 51.5053 32.6257 50.9186C33.2125 50.3319 33.5058 49.6194 33.5058 48.7813C33.5058 47.9431 33.2125 47.2307 32.6257 46.6439C32.039 46.0572 31.3266 45.7639 30.4884 45.7639C29.9855 45.7639 29.5245 45.8896 29.1054 46.141C30.3627 47.7336 30.7818 49.5356 30.3627 51.5472V51.7987H30.4884ZM59.4052 50.4157L58.148 48.2784L58.3994 47.7755C58.7347 47.2726 58.9862 46.7278 59.1538 46.141L59.2795 45.6381L61.6683 45.0095V40.4834L59.2795 39.8548L59.1538 39.3519C58.9862 38.849 58.7766 38.3461 58.5252 37.8432C58.1061 38.5137 57.6032 39.1004 57.0165 39.6033C57.4355 40.6091 57.6451 41.6568 57.6451 42.7464C57.6451 45.261 56.765 47.3983 55.0049 49.1584C53.2447 50.9186 51.1074 51.7987 48.5929 51.7987C46.0784 51.7987 43.941 50.9186 42.1809 49.1584C40.4207 47.3983 39.5406 45.261 39.5406 42.7464C39.5406 41.6568 39.7502 40.6091 40.1693 39.6033C39.5825 39.1004 39.0796 38.5137 38.6606 37.8432C38.4091 38.3461 38.1996 38.849 38.0319 39.3519L37.9062 39.8548L35.5174 40.4834V45.0095L37.9062 45.6381L38.0319 46.141C38.1996 46.7278 38.451 47.2726 38.7863 47.7755L39.0377 48.2784L37.7805 50.4157L40.9236 53.5588L43.0609 52.3016L43.5638 52.553C44.0667 52.8883 44.6116 53.1397 45.1983 53.3074L45.7012 53.4331L46.3298 55.8219H50.8559L51.4845 53.4331L51.9874 53.3074C52.5742 53.1397 53.119 52.8883 53.6219 52.553L54.1248 52.3016L56.2621 53.5588L59.4052 50.4157Z" fill="#1F12FC"/>
</svg>