<svg width="65" height="65" viewBox="0 0 65 65" fill="none" xmlns="http://www.w3.org/2000/svg">
    <path d="M37.529 19.613H36.5232L37.1519 31.6826H43.5638V41.7406H47.5871V31.6826H63.6799V53.8103H47.5871V43.7523H43.5638V53.8103H38.2834L38.5348 58.8393C38.5348 60.1804 38.0529 61.3538 37.089 62.3596C36.1251 63.3654 34.9307 63.8683 33.5058 63.8683H31.4942C30.0693 63.8683 28.8749 63.3864 27.911 62.4225C26.9471 61.4586 26.4652 60.2642 26.4652 58.8393L26.7166 53.8103H21.4362V43.7523H17.413V53.8103H1.32013V31.6826H17.413V41.7406H21.4362V31.6826H27.8482L28.4768 19.613H27.471C26.6328 19.613 25.9204 19.3196 25.3337 18.7329C24.747 18.1462 24.4536 17.4337 24.4536 16.5956V14.0811C17.6644 15.0031 11.3362 17.1823 5.46907 20.6188L3.58319 21.6246H1.32013V19.2358L1.44585 18.9844C5.38525 13.5363 10.3304 9.26161 16.2814 6.16039C22.2324 3.05916 28.5606 1.50854 35.266 1.50854H54.6277C57.1422 1.50854 59.2795 2.38861 61.0397 4.14877C62.7998 5.90893 63.6799 8.04626 63.6799 10.5608V17.6014H54.2505L53.8733 17.3499C51.4426 14.8354 48.4671 13.5782 44.9468 13.5782H40.5464V16.5956C40.5464 17.4337 40.2531 18.1462 39.6664 18.7329C39.0796 19.3196 38.3672 19.613 37.529 19.613ZM15.4014 51.7987V33.6942H3.33173V51.7987H15.4014ZM49.5987 33.6942V51.7987H61.6683V33.6942H49.5987ZM4.46326 18.8586C12.9288 13.9973 22.0229 11.5666 31.7457 11.5666H44.9468C48.8024 11.5666 52.1551 12.9076 55.0049 15.5898H61.6683V10.5608C61.6683 8.63298 60.9768 6.97759 59.5938 5.59461C58.2108 4.21164 56.5555 3.52014 54.6277 3.52014H35.266C29.1473 3.52014 23.3221 4.90312 17.7901 7.66908C12.2582 10.435 7.6483 14.2487 3.96036 19.1101L4.46326 18.8586ZM26.4652 16.5956C26.4652 17.2661 26.8005 17.6014 27.471 17.6014H37.529C38.1996 17.6014 38.5348 17.2661 38.5348 16.5956V13.5782H31.7457C30.1531 13.5782 28.393 13.662 26.4652 13.8296V16.5956ZM23.4478 51.7987H26.8424L27.7225 33.6942H23.4478V51.7987ZM41.5522 33.6942H37.2776L38.1577 51.7987H41.5522V33.6942ZM36.5232 58.8393L34.5116 19.613H30.4884L28.4768 58.8393C28.4768 59.6775 28.7702 60.3899 29.3569 60.9766C29.9436 61.5633 30.656 61.8567 31.4942 61.8567H33.5058C34.344 61.8567 35.0564 61.5633 35.6431 60.9766C36.2299 60.3899 36.5232 59.6775 36.5232 58.8393ZM57.6451 10.5608C57.6451 9.72259 57.3517 9.01015 56.765 8.42343C56.1783 7.83671 55.4658 7.54335 54.6277 7.54335H52.6161V5.53175H54.6277C56.0526 5.53175 57.247 6.0137 58.2108 6.9776C59.1747 7.9415 59.6567 9.13587 59.6567 10.5608V11.5666H57.6451V10.5608ZM51.6103 35.7058H59.6567V37.7174H51.6103V35.7058ZM51.6103 39.729H59.6567V41.7406H51.6103V39.729ZM51.6103 43.7523H59.6567V45.7639H51.6103V43.7523ZM51.6103 47.7755H59.6567V49.7871H51.6103V47.7755ZM13.3898 35.7058V41.7406H5.34334V35.7058H13.3898ZM11.3782 39.729V37.7174H7.35495V39.729H11.3782ZM5.34334 43.7523H13.3898V45.7639H5.34334V43.7523ZM11.3782 47.7755H13.3898V49.7871H11.3782V47.7755ZM5.34334 47.7755H9.36655V49.7871H5.34334V47.7755ZM48.5929 5.53175H50.6045V7.54335H48.5929V5.53175Z" fill="#1F12FC"/>
</svg>