<svg width="176" height="72" viewBox="0 0 176 72" fill="none" xmlns="http://www.w3.org/2000/svg">
<g clip-path="url(#clip0_1_13)">
<path d="M108.602 32.0911H98.0842V4.73246H108.496C111.307 4.73246 113.737 5.28017 115.783 6.37555C117.839 7.46211 119.423 9.0295 120.535 11.0778C121.656 13.1172 122.217 15.5619 122.217 18.4118C122.217 21.2616 121.661 23.7107 120.548 25.759C119.436 27.7984 117.861 29.3659 115.823 30.4613C113.785 31.5478 111.379 32.0911 108.602 32.0911ZM105.506 25.7858H108.335C109.688 25.7858 110.84 25.5676 111.792 25.1312C112.753 24.6948 113.483 23.9423 113.981 22.8735C114.488 21.8049 114.742 20.3176 114.742 18.4118C114.742 16.5059 114.484 15.0187 113.968 13.9499C113.46 12.8813 112.713 12.1288 111.726 11.6924C110.746 11.256 109.545 11.0378 108.121 11.0378H105.506V25.7858Z" fill="#2563E9"/>
<path d="M131.564 32.0911H123.556L132.579 4.73246H142.723L151.746 32.0911H143.737L137.758 12.2668H137.544L131.564 32.0911ZM130.069 21.2973H145.125V26.8544H130.069V21.2973Z" fill="#2563E9"/>
<path d="M168.515 13.3087C168.444 12.4181 168.11 11.7235 167.514 11.2248C166.926 10.7261 166.032 10.4767 164.831 10.4767C164.066 10.4767 163.438 10.5702 162.949 10.7572C162.469 10.9353 162.112 11.1802 161.881 11.4919C161.65 11.8037 161.53 12.1599 161.521 12.5606C161.503 12.8902 161.561 13.1885 161.694 13.4557C161.836 13.714 162.059 13.9499 162.361 14.1637C162.664 14.3685 163.051 14.5556 163.523 14.7248C163.995 14.8939 164.555 15.0454 165.205 15.1789L167.447 15.6599C168.96 15.9804 170.254 16.4035 171.331 16.9289C172.408 17.4544 173.289 18.0733 173.974 18.7858C174.659 19.4894 175.162 20.282 175.482 21.1637C175.812 22.0453 175.981 23.0071 175.989 24.0491C175.981 25.8481 175.531 27.371 174.641 28.6178C173.752 29.8646 172.479 30.8131 170.824 31.4632C169.178 32.1133 167.198 32.4384 164.884 32.4384C162.508 32.4384 160.435 32.0866 158.665 31.383C156.902 30.6795 155.532 29.5974 154.553 28.1369C153.583 26.6675 153.094 24.7883 153.085 22.4995H160.132C160.177 23.3367 160.386 24.0402 160.76 24.6102C161.134 25.1801 161.659 25.6121 162.335 25.906C163.02 26.1999 163.835 26.3468 164.778 26.3468C165.569 26.3468 166.232 26.2489 166.766 26.0529C167.3 25.857 167.705 25.5853 167.981 25.238C168.257 24.8908 168.399 24.4944 168.408 24.0491C168.399 23.6306 168.261 23.2654 167.995 22.9537C167.737 22.6331 167.309 22.3481 166.713 22.0988C166.117 21.8405 165.311 21.6 164.297 21.3774L161.574 20.7896C159.154 20.2641 157.245 19.387 155.848 18.158C154.46 16.9201 153.77 15.2324 153.779 13.095C153.77 11.3584 154.233 9.83992 155.167 8.53971C156.111 7.23052 157.414 6.21084 159.078 5.48054C160.751 4.75026 162.669 4.38513 164.831 4.38513C167.038 4.38513 168.946 4.75472 170.557 5.4939C172.168 6.23306 173.409 7.27507 174.281 8.61983C175.162 9.95569 175.607 11.5187 175.616 13.3087H168.515Z" fill="#2563E9"/>
<path d="M149.02 40.3598H157.156L162.405 51.287H162.615L167.864 40.3598H176L166.132 58.7994V67.2574H158.888V58.7994L149.02 40.3598Z" fill="#2563E9"/>
<path d="M124.018 46.2437V40.3598H147.376V46.2437H139.293V67.2574H132.102V46.2437H124.018Z" fill="#2563E9"/>
<path d="M113.989 40.3598H121.285V57.5911C121.285 59.64 120.795 61.4131 119.815 62.9103C118.845 64.3985 117.488 65.5501 115.747 66.3646C114.007 67.1701 111.986 67.5728 109.685 67.5728C107.367 67.5728 105.337 67.1701 103.596 66.3646C101.855 65.5501 100.499 64.3985 99.5278 62.9103C98.5654 61.4131 98.0842 59.64 98.0842 57.5911V40.3598H105.38V56.9607C105.38 57.7925 105.564 58.5367 105.931 59.1934C106.299 59.8413 106.807 60.3494 107.454 60.7172C108.11 61.0844 108.854 61.2686 109.685 61.2686C110.524 61.2686 111.268 61.0844 111.916 60.7172C112.563 60.3494 113.071 59.8413 113.438 59.1934C113.805 58.5367 113.989 57.7925 113.989 56.9607V40.3598Z" fill="#2563E9"/>
<path d="M86.4595 35.9868C86.4607 43.7283 83.9669 51.2637 79.3492 57.4743C74.7314 63.6851 68.2358 68.2393 60.8259 70.4613C53.4164 72.6833 45.4884 72.4545 38.2191 69.8093C30.9497 67.1635 24.7267 62.2421 20.4739 55.7756C20.3391 55.5614 20.2043 55.3644 20.0759 55.1566H28.0349C28.2903 55.4565 28.5521 55.7506 28.8203 56.0391C32.8268 60.3807 38.0416 63.4208 43.7916 64.7663C49.5415 66.1124 55.5625 65.7018 61.0773 63.5882C66.5919 61.4751 71.3468 57.7557 74.7284 52.9106C78.1095 48.0654 79.9621 42.317 80.0469 36.4076C80.1311 30.4982 78.4439 24.6992 75.2018 19.7592C71.9603 14.8192 67.3137 10.9653 61.8616 8.69491C56.4099 6.4245 50.4031 5.84193 44.617 7.02247C38.8309 8.20301 33.5313 11.0924 29.4025 15.3175H21.0732C25.4632 9.0549 31.7331 4.35551 38.9729 1.90154C46.2127 -0.552432 54.0456 -0.63325 61.3341 1.67081C68.6231 3.97488 74.9889 8.54392 79.5068 14.7146C84.0247 20.8854 86.4601 28.3366 86.4595 35.9868Z" fill="#2563E9"/>
<path d="M43.3369 37.9146C43.3369 38.1657 43.3161 38.4165 43.2748 38.6642H10.6041C10.5516 38.6573 10.4987 38.6537 10.4458 38.6535C10.1017 38.6506 9.75807 38.6292 9.41636 38.5892C8.24854 38.3873 7.18947 37.7792 6.42592 36.872C5.66242 35.9648 5.24354 34.8169 5.24319 33.6307C5.24319 33.5237 5.24318 33.4166 5.25388 33.3095H38.7357C39.9558 33.3101 41.1258 33.7954 41.9886 34.6589C42.8514 35.5224 43.3364 36.6934 43.3369 37.9146Z" fill="#2563E9"/>
<path d="M59.1737 42.8409V50.6587H16.0507C14.7169 50.6587 13.4377 50.1284 12.4946 49.1845C11.5513 48.2405 11.0215 46.9603 11.0215 45.6253C11.0215 45.5182 11.0215 45.4111 11.0322 45.3041H53.3098C53.3655 44.7407 53.3954 44.1689 53.3954 43.5905C53.3954 43.432 53.3954 43.2714 53.3954 43.1129C53.3954 42.9544 53.3954 42.7895 53.3954 42.6267C53.3957 40.5311 52.9835 38.456 52.1824 36.5198C51.3812 34.5837 50.2068 32.8245 48.7263 31.3427C47.2457 29.8609 45.4879 28.6856 43.5534 27.8837C41.6189 27.0819 39.5456 26.6694 37.4517 26.6696C37.2847 26.6696 37.12 26.6696 36.9552 26.6696C36.7904 26.6696 36.6449 26.6696 36.4887 26.6696H4.92223C3.61677 26.6696 2.36478 26.1506 1.44168 25.2267C0.518589 24.3029 0 23.0498 0 21.7433C0 21.5977 -7.8421e-07 21.4563 0.0192601 21.3149H37.6657C41.6781 21.3174 45.6099 22.4417 49.018 24.561C52.4261 26.6803 55.1749 29.7103 56.9544 33.3095C57.7945 35.0055 58.4041 36.8064 58.767 38.6642C59.0385 40.0398 59.1747 41.4387 59.1737 42.8409Z" fill="#2563E9"/>
</g>
<defs>
<clipPath id="clip0_1_13">
<rect width="176" height="72" fill="white"/>
</clipPath>
</defs>
</svg>
