<svg width="35" height="35" viewBox="0 0 35 35" fill="none" xmlns="http://www.w3.org/2000/svg">
    <path d="M12.1518 13.8104C12.3324 13.314 12.6709 12.9755 13.1673 12.795V12.1857H4.43425C4.16345 12.9078 3.64443 13.2688 2.87719 13.2688C2.42587 13.2688 2.04224 13.1109 1.72632 12.795C1.41039 12.479 1.25243 12.0954 1.25243 11.6441C1.25243 11.1928 1.41039 10.8091 1.72632 10.4932C2.04224 10.1773 2.42587 10.0193 2.87719 10.0193C3.64443 10.0193 4.16345 10.3804 4.43425 11.1025H13.1673V10.4932C12.6709 10.3127 12.3324 9.97419 12.1518 9.47774H7.20988C7.07448 9.47774 6.93908 9.43261 6.80369 9.34234L4.84044 7.31139H4.43425C4.16345 8.0335 3.64443 8.39457 2.87719 8.39457C2.42587 8.39457 2.04224 8.2366 1.72632 7.92068C1.41039 7.60475 1.25243 7.22113 1.25243 6.76981C1.25243 6.31848 1.41039 5.93485 1.72632 5.61894C2.04224 5.30301 2.42587 5.14505 2.87719 5.14505C3.64443 5.14505 4.16345 5.5061 4.43425 6.22822H5.04353C5.17893 6.22822 5.31432 6.27334 5.44972 6.36362L7.41297 8.39457H12.1518C12.4226 7.67245 12.9417 7.31139 13.7089 7.31139C14.1151 7.31139 14.4761 7.44678 14.7921 7.71758L16.9584 6.49901C16.9584 6.40875 16.9584 6.31848 16.9584 6.22822C16.9584 5.7769 17.1164 5.39327 17.4323 5.07735C17.7482 4.76142 18.1319 4.60346 18.5832 4.60346C19.0345 4.60346 19.4181 4.76142 19.734 5.07735C20.05 5.39327 20.2079 5.7769 20.2079 6.22822C20.2079 6.31848 20.2079 6.40875 20.2079 6.49901L22.3743 7.71758C22.6902 7.44678 23.0513 7.31139 23.4574 7.31139C23.9088 7.31139 24.2924 7.46935 24.6083 7.78527C24.9242 8.1012 25.0822 8.48483 25.0822 8.93615C25.0822 9.70339 24.7211 10.2224 23.999 10.4932V12.795C24.7211 13.0658 25.0822 13.5848 25.0822 14.352C25.0822 14.8033 24.9242 15.187 24.6083 15.5029C24.2924 15.8188 23.9088 15.9768 23.4574 15.9768C23.0513 15.9768 22.6902 15.8414 22.3743 15.5706L20.2079 16.7892C20.2079 16.8794 20.2079 16.9697 20.2079 17.06C20.2079 17.5113 20.05 17.8949 19.734 18.2108C19.4181 18.5267 19.0345 18.6847 18.5832 18.6847C18.1319 18.6847 17.7482 18.5267 17.4323 18.2108C17.1164 17.8949 16.9584 17.5113 16.9584 17.06C16.9584 16.9697 16.9584 16.8794 16.9584 16.7892L14.7921 15.5706C14.4761 15.8414 14.1151 15.9768 13.7089 15.9768C12.9417 15.9768 12.4226 15.6157 12.1518 14.8936H7.41297L5.44972 16.9246C5.31432 17.0148 5.17893 17.06 5.04353 17.06H4.43425C4.16345 17.7821 3.64443 18.1431 2.87719 18.1431C2.42587 18.1431 2.04224 17.9852 1.72632 17.6692C1.41039 17.3533 1.25243 16.9697 1.25243 16.5184C1.25243 16.067 1.41039 15.6834 1.72632 15.3675C2.04224 15.0516 2.42587 14.8936 2.87719 14.8936C3.64443 14.8936 4.16345 15.2547 4.43425 15.9768H4.84044L6.80369 13.9458C6.93908 13.8556 7.07448 13.8104 7.20988 13.8104H12.1518ZM2.3356 16.5184C2.3356 16.5184 2.3356 16.6086 2.3356 16.7892C2.3356 16.9697 2.51613 17.06 2.87719 17.06C3.23824 17.06 3.41877 16.8794 3.41877 16.5184C3.41877 16.1573 3.23824 15.9768 2.87719 15.9768C2.51613 15.9768 2.3356 16.1573 2.3356 16.5184ZM2.3356 6.76981C2.3356 6.76981 2.3356 6.86006 2.3356 7.0406C2.3356 7.22113 2.51613 7.31139 2.87719 7.31139C3.23824 7.31139 3.41877 7.13086 3.41877 6.76981C3.41877 6.40875 3.23824 6.22822 2.87719 6.22822C2.51613 6.22822 2.3356 6.40875 2.3356 6.76981ZM2.3356 11.6441C2.3356 11.6441 2.3356 11.7344 2.3356 11.9149C2.3356 12.0954 2.51613 12.1857 2.87719 12.1857C3.23824 12.1857 3.41877 12.0051 3.41877 11.6441C3.41877 11.283 3.23824 11.1025 2.87719 11.1025C2.51613 11.1025 2.3356 11.283 2.3356 11.6441ZM13.1673 14.352C13.1673 14.352 13.1673 14.4423 13.1673 14.6228C13.1673 14.8033 13.3478 14.8936 13.7089 14.8936C14.07 14.8936 14.2505 14.7131 14.2505 14.352C14.2505 13.991 14.07 13.8104 13.7089 13.8104C13.3478 13.8104 13.1673 13.991 13.1673 14.352ZM14.7921 10.1547C14.6115 10.2901 14.431 10.403 14.2505 10.4932V12.795C14.431 12.8852 14.6115 12.9981 14.7921 13.1335L16.9584 11.9149C16.9584 11.8246 16.9584 11.7344 16.9584 11.6441C16.9584 11.5538 16.9584 11.4636 16.9584 11.3733L14.7921 10.1547ZM22.3743 13.1335C22.5548 12.9981 22.7353 12.8852 22.9159 12.795V10.4932C22.7353 10.403 22.5548 10.2901 22.3743 10.1547L20.2079 11.3733C20.2079 11.4636 20.2079 11.5538 20.2079 11.6441C20.2079 11.7344 20.2079 11.8246 20.2079 11.9149L22.3743 13.1335ZM15.3337 14.0812C15.3337 14.1715 15.3337 14.2618 15.3337 14.352C15.3337 14.4423 15.3337 14.5326 15.3337 14.6228L17.5 15.8414C17.6805 15.706 17.8611 15.5932 18.0416 15.5029V13.2012C17.8611 13.1109 17.6805 12.9981 17.5 12.8627L15.3337 14.0812ZM19.1248 11.6441C19.1248 11.6441 19.1248 11.5538 19.1248 11.3733C19.1248 11.1928 18.9442 11.1025 18.5832 11.1025C18.2221 11.1025 18.0416 11.283 18.0416 11.6441C18.0416 12.0051 18.2221 12.1857 18.5832 12.1857C18.9442 12.1857 19.1248 12.0051 19.1248 11.6441ZM19.1248 13.2012V15.5029C19.3053 15.5932 19.4858 15.706 19.6663 15.8414L21.8327 14.6228C21.8327 14.5326 21.8327 14.4423 21.8327 14.352C21.8327 14.2618 21.8327 14.1715 21.8327 14.0812L19.6663 12.8627C19.4858 12.9981 19.3053 13.1109 19.1248 13.2012ZM21.8327 9.20694C21.8327 9.11668 21.8327 9.02641 21.8327 8.93615C21.8327 8.84589 21.8327 8.75562 21.8327 8.66536L19.6663 7.44679C19.4858 7.58219 19.3053 7.69501 19.1248 7.78527V10.087C19.3053 10.1773 19.4858 10.2901 19.6663 10.4255L21.8327 9.20694ZM18.0416 10.087V7.78527C17.8611 7.69501 17.6805 7.58219 17.5 7.44679L15.3337 8.66536C15.3337 8.75562 15.3337 8.84589 15.3337 8.93615C15.3337 9.02641 15.3337 9.11668 15.3337 9.20694L17.5 10.4255C17.6805 10.2901 17.8611 10.1773 18.0416 10.087ZM18.0416 17.06C18.0416 17.06 18.0416 17.1502 18.0416 17.3307C18.0416 17.5113 18.2221 17.6015 18.5832 17.6015C18.9442 17.6015 19.1248 17.421 19.1248 17.06C19.1248 16.6989 18.9442 16.5184 18.5832 16.5184C18.2221 16.5184 18.0416 16.6989 18.0416 17.06ZM22.9159 14.352C22.9159 14.352 22.9159 14.4423 22.9159 14.6228C22.9159 14.8033 23.0964 14.8936 23.4574 14.8936C23.8185 14.8936 23.999 14.7131 23.999 14.352C23.999 13.991 23.8185 13.8104 23.4574 13.8104C23.0964 13.8104 22.9159 13.991 22.9159 14.352ZM23.999 8.93615C23.999 8.93615 23.999 8.84589 23.999 8.66536C23.999 8.48483 23.8185 8.39457 23.4574 8.39457C23.0964 8.39457 22.9159 8.57509 22.9159 8.93615C22.9159 9.29721 23.0964 9.47774 23.4574 9.47774C23.8185 9.47774 23.999 9.29721 23.999 8.93615ZM19.1248 6.22822C19.1248 6.22822 19.1248 6.13796 19.1248 5.95743C19.1248 5.7769 18.9442 5.68663 18.5832 5.68663C18.2221 5.68663 18.0416 5.86716 18.0416 6.22822C18.0416 6.58928 18.2221 6.76981 18.5832 6.76981C18.9442 6.76981 19.1248 6.58928 19.1248 6.22822ZM14.2505 8.93615C14.2505 8.93615 14.2505 8.84589 14.2505 8.66536C14.2505 8.48483 14.07 8.39457 13.7089 8.39457C13.3478 8.39457 13.1673 8.57509 13.1673 8.93615C13.1673 9.29721 13.3478 9.47774 13.7089 9.47774C14.07 9.47774 14.2505 9.29721 14.2505 8.93615ZM12.6257 33.8491C12.2647 33.8491 12.0841 33.6686 12.0841 33.3075V32.2244C12.0841 27.9819 10.8656 23.8523 8.42844 19.8356C7.84173 18.8427 7.3904 17.7821 7.07448 16.6538L8.08995 16.383C8.36075 17.421 8.7895 18.3914 9.37622 19.294C11.9036 23.4462 13.1673 27.7563 13.1673 32.2244V32.7659H20.7495V28.9748C20.7495 28.6138 20.93 28.4333 21.2911 28.4333H28.3317V25.1837H26.707C25.9397 25.1837 25.2966 24.9242 24.7776 24.4052C24.2585 23.8862 23.999 23.2431 23.999 22.4758H25.0822C25.0822 22.9271 25.2402 23.3108 25.5561 23.6267C25.872 23.9426 26.2556 24.1006 26.707 24.1006H28.3317V21.9342C28.3317 21.5732 28.5123 21.3926 28.8733 21.3926H32.4613L30.0242 13.5396C29.979 13.4494 29.9565 13.3591 29.9565 13.2688C29.8662 10.1547 28.6702 7.52577 26.3685 5.38199C24.0667 3.23821 21.3362 2.25659 18.177 2.43712C16.4168 2.57251 14.7695 3.09153 13.235 3.99418C11.7005 4.89682 10.4594 6.09282 9.51162 7.58219L8.56384 7.0406C9.64701 5.37071 11.0348 4.03931 12.7273 3.0464C14.4197 2.05349 16.2137 1.48934 18.1093 1.35394C21.5845 1.17342 24.5858 2.25659 27.1132 4.60346C29.5954 6.9052 30.9043 9.74853 31.0397 13.1335L33.7476 21.7988C33.7927 21.9342 33.7589 22.0809 33.646 22.2389C33.5332 22.3968 33.3865 22.4758 33.206 22.4758H29.4149V28.9748C29.4149 29.3359 29.2344 29.5164 28.8733 29.5164H21.8327V33.3075C21.8327 33.6686 21.6522 33.8491 21.2911 33.8491H12.6257Z" fill="#308CD3"/>
</svg>