<svg width="35" height="35" viewBox="0 0 35 35" fill="none" xmlns="http://www.w3.org/2000/svg">
    <g clip-path="url(#clip0_1_226)">
        <path d="M33.0706 0.270752C33.5671 0.270752 33.9845 0.439998 34.323 0.778488C34.6615 1.11698 34.8308 1.53445 34.8308 2.03091V10.087C34.8308 10.5834 34.6615 11.0009 34.323 11.3394C33.9845 11.6779 33.5671 11.8471 33.0706 11.8471H24.6083C24.2473 11.8471 23.9088 11.96 23.5928 12.1856L23.2543 12.3887C23.2543 12.6595 23.2543 12.9303 23.2543 13.2011C23.6154 12.9754 23.999 12.9529 24.4052 13.1334C24.9468 13.4493 25.1273 14.6002 24.9468 16.586C24.9468 16.6312 24.9242 16.6763 24.8791 16.7214C24.4278 17.8497 23.7282 18.7975 22.7805 19.5647C22.8707 21.37 22.4645 22.8143 21.5619 23.8974V25.8607C22.3743 26.5377 23.2769 27.0116 24.2698 27.2823C25.2627 27.508 26.1879 27.8691 27.0455 28.3655C27.587 28.6814 28.3317 29.0876 29.2795 29.5841C29.3246 29.6292 29.4375 29.6969 29.618 29.7872C30.2498 30.0128 30.7689 30.3965 31.175 30.9381C31.3556 31.2991 31.4233 31.6827 31.3781 32.0889C31.3781 32.1341 31.3781 32.2018 31.3781 32.292V33.7814C31.3781 34.0973 31.2653 34.3681 31.0396 34.5938C30.814 34.8194 30.5432 34.9323 30.2273 34.9323H1.32011C1.13958 34.9323 0.959053 34.8758 0.778525 34.763C0.597996 34.6502 0.451316 34.5148 0.338486 34.3568C0.225656 34.1989 0.16924 34.007 0.16924 33.7814V33.5783V32.292C0.16924 32.2469 0.16924 32.2018 0.16924 32.1566C0.16924 32.1115 0.16924 32.0889 0.16924 32.0889C0.124108 31.6827 0.191806 31.2991 0.372335 30.9381C0.778525 30.3965 1.29754 30.0128 1.9294 29.7872C2.10992 29.6969 2.24532 29.6292 2.33558 29.5841C3.32849 29.0425 4.05061 28.6363 4.50193 28.3655C5.40457 27.8239 6.35235 27.4629 7.34526 27.2823C8.33816 27.0116 9.21824 26.5377 9.98549 25.8607V23.8974C9.08284 22.8594 8.67665 21.4152 8.76692 19.5647C7.77401 18.7975 7.0519 17.8272 6.60057 16.6537C6.60057 16.6537 6.60057 16.6086 6.60057 16.5183C6.42005 14.5776 6.60057 13.4493 7.14216 13.1334C7.50322 12.9529 7.88684 12.9529 8.29303 13.1334C8.2479 12.2308 8.2479 11.2604 8.29303 10.2224C8.33816 9.04896 8.62024 8.03348 9.13926 7.17597C9.65828 6.31846 10.2224 5.68661 10.8317 5.28042C11.441 4.87423 12.118 4.53574 12.8627 4.26495C13.6073 3.99415 14.1602 3.83619 14.5213 3.79106C14.8823 3.74593 15.1306 3.72336 15.266 3.72336H16.2814C16.2814 3.72336 16.304 3.72336 16.3491 3.72336V2.03091C16.3491 1.53445 16.5184 1.11698 16.8569 0.778488C17.1954 0.439998 17.6128 0.270752 18.1093 0.270752H33.0706ZM7.75145 16.3829C8.02224 17.0148 8.36073 17.5789 8.76692 18.0754C8.76692 17.6241 8.72179 17.1727 8.63152 16.7214C8.49613 15.9993 8.40586 15.2772 8.36073 14.5551C8.1802 14.4197 7.97711 14.3068 7.75145 14.2166C7.66118 14.9387 7.66118 15.6608 7.75145 16.3829ZM1.32011 32.292C1.32011 32.6079 1.32011 33.0367 1.32011 33.5783V33.7814H9.24081C8.06737 32.4725 7.54835 30.6673 7.68375 28.3655C7.59348 28.3655 7.54835 28.3881 7.54835 28.4332C6.69084 28.6137 5.87846 28.9297 5.11121 29.381C4.56963 29.6969 3.82495 30.1031 2.87717 30.5996C2.78691 30.6447 2.65151 30.7124 2.47098 30.8027C2.06479 30.9381 1.70373 31.1637 1.38781 31.4796C1.34268 31.6602 1.32011 31.8407 1.32011 32.0212C1.32011 32.0664 1.32011 32.1566 1.32011 32.292ZM26.5039 29.381C25.7366 28.9297 24.9242 28.6137 24.0667 28.4332C24.0216 28.3881 23.9313 28.3655 23.7959 28.3655C23.9765 30.7124 23.48 32.5177 22.3066 33.7814H30.2273V32.292C30.2273 32.2469 30.2273 32.1566 30.2273 32.0212C30.2724 31.8407 30.2498 31.6602 30.1596 31.4796C29.8888 31.1637 29.5503 30.9381 29.1441 30.8027C28.9636 30.7124 28.8056 30.6447 28.6702 30.5996C27.7224 30.1031 27.0003 29.6969 26.5039 29.381ZM22.6451 27.8916C22.284 27.7111 21.9229 27.508 21.5619 27.2823V27.9593C21.5619 28.3655 21.3701 28.5686 20.9865 28.5686C20.6028 28.5686 20.411 28.3655 20.411 27.9593V25.1837C20.0951 25.5899 19.8017 26.0186 19.5309 26.47C19.2602 26.9664 19.0345 27.3275 18.854 27.5531C18.6734 27.7788 18.4026 28.0045 18.0416 28.2301C17.6805 28.4558 17.2518 28.5686 16.7553 28.5686H14.7921C14.1151 28.5686 13.5848 28.3994 13.2012 28.0609C12.8175 27.7224 12.4001 27.1921 11.9487 26.47C11.7231 26.0638 11.4523 25.6576 11.1364 25.2514V27.9593C11.1364 28.3655 10.9445 28.5686 10.5609 28.5686C10.1773 28.5686 9.98549 28.3655 9.98549 27.9593V27.2823C9.62443 27.508 9.26337 27.7337 8.90232 27.9593C8.54126 30.9381 9.26337 32.8787 11.0687 33.7814H20.411C22.2614 32.8787 23.0061 30.9155 22.6451 27.8916ZM23.7959 14.1489C23.5703 14.2843 23.3672 14.4197 23.1867 14.5551C23.1415 15.1869 23.0513 15.909 22.9159 16.7214C22.8256 17.1276 22.7579 17.5789 22.7128 18.0754C23.1641 17.5338 23.5251 16.9696 23.7959 16.3829C23.8862 15.6608 23.8862 14.9161 23.7959 14.1489ZM21.765 16.5183C21.9455 15.4352 22.0583 14.352 22.1035 13.2688L20.4787 14.4874C20.1177 14.7582 19.7228 14.792 19.294 14.5889C18.8652 14.3858 18.6509 14.0361 18.6509 13.5396V11.8471H18.1093C17.6128 11.8471 17.1954 11.6779 16.8569 11.3394C16.5184 11.0009 16.3491 10.5834 16.3491 10.087V4.87423H16.2137H15.266C15.0854 4.87423 14.8598 4.8968 14.589 4.94193C14.3182 4.98706 13.8669 5.12246 13.235 5.34812C12.6032 5.57378 12.039 5.85586 11.5425 6.19435C11.0461 6.53284 10.5835 7.06314 10.1547 7.78526C9.72598 8.50737 9.48903 9.31975 9.4439 10.2224C9.30851 12.3436 9.42134 14.4422 9.78239 16.5183C9.87266 17.1502 9.94036 17.782 9.98549 18.4139C9.98549 18.5944 9.96292 18.8878 9.91779 19.294C9.91779 19.3391 9.91779 19.3617 9.91779 19.3617V19.4293C9.91779 19.7453 9.91779 20.0725 9.91779 20.411C9.91779 20.7495 9.94036 21.0767 9.98549 21.3926C10.0306 21.7085 10.1435 22.0244 10.324 22.3404C10.5045 22.6563 10.7302 22.9722 11.001 23.2881C11.0912 23.4235 11.1815 23.5364 11.2718 23.6266C11.9036 24.3036 12.4678 25.0483 12.9642 25.8607C13.3253 26.4925 13.6186 26.91 13.8443 27.1131C14.07 27.3162 14.3859 27.4177 14.7921 27.4177H16.7553C17.1615 27.4177 17.4774 27.3162 17.7031 27.1131C17.9288 26.91 18.2221 26.4925 18.5832 25.8607C19.0345 25.0483 19.5986 24.3036 20.2756 23.6266C20.9075 22.9948 21.3024 22.3742 21.4603 21.7649C21.6183 21.1557 21.6747 20.3771 21.6296 19.4293V19.3617C21.6296 19.3617 21.6296 19.3391 21.6296 19.294C21.5845 18.8878 21.5619 18.5944 21.5619 18.4139C21.5619 17.782 21.6296 17.1502 21.765 16.5183ZM33.6799 10.087V2.03091C33.6799 1.62472 33.4768 1.42162 33.0706 1.42162H18.1093C17.7031 1.42162 17.5 1.62472 17.5 2.03091V10.087C17.5 10.448 17.7031 10.6286 18.1093 10.6286H18.6509C18.9668 10.6286 19.2376 10.7414 19.4632 10.9671C19.6889 11.1927 19.8017 11.4861 19.8017 11.8471V13.5396L22.9159 11.2379C23.4123 10.8768 23.9765 10.6737 24.6083 10.6286H33.0706C33.4768 10.6286 33.6799 10.448 33.6799 10.087ZM31.9197 5.48352C32.3259 5.48352 32.529 5.67533 32.529 6.05895C32.529 6.44258 32.3259 6.63439 31.9197 6.63439H30.7689C30.5432 6.63439 30.3852 6.54412 30.295 6.36359L29.618 9.07152C29.5277 9.34232 29.3359 9.489 29.0426 9.51156C28.7492 9.53413 28.5574 9.38745 28.4671 9.07152L27.2485 4.94193L26.0977 7.98835C26.0074 8.21401 25.8382 8.33813 25.5899 8.36069C25.3417 8.38326 25.1725 8.28171 25.0822 8.05605L24.5406 6.97288L23.7959 9.13922C23.7057 9.36488 23.5251 9.47772 23.2543 9.47772C22.9836 9.47772 22.803 9.34232 22.7128 9.07152L21.4942 4.87423L20.9526 6.2282C20.8172 6.49899 20.6367 6.63439 20.411 6.63439H19.2602C18.854 6.63439 18.6509 6.44258 18.6509 6.05895C18.6509 5.67533 18.854 5.48352 19.2602 5.48352H20.0048L21.0203 2.91098C21.1106 2.68532 21.2911 2.57249 21.5619 2.57249C21.8327 2.57249 22.0132 2.70789 22.1035 2.97868L23.322 7.04058L23.8636 5.28042C23.9539 5.05476 24.1231 4.93065 24.3714 4.90808C24.6196 4.88552 24.8114 4.98706 24.9468 5.21272L25.4884 6.36359L26.7747 2.97868C26.8649 2.70789 27.0455 2.57249 27.3162 2.57249C27.587 2.57249 27.7676 2.70789 27.8578 2.97868L29.0087 6.76978L29.618 4.19725C29.7083 3.88133 29.9001 3.72336 30.1934 3.72336C30.4868 3.72336 30.6786 3.85876 30.7689 4.12955L31.175 5.48352H31.9197Z" fill="#E8C91E"/>
    </g>
    <defs>
        <clipPath id="clip0_1_226">
            <rect width="35" height="35" fill="white"/>
        </clipPath>
    </defs>
</svg>