<svg width="35" height="35" viewBox="0 0 35 35" fill="none" xmlns="http://www.w3.org/2000/svg">
    <g clip-path="url(#clip0_1_190)">
        <path d="M11.8472 15.1306C11.8472 15.1306 11.7964 15.0798 11.6949 14.9782C11.5933 14.8767 11.5426 14.6679 11.5426 14.352C11.5426 14.0361 11.6441 13.7766 11.8472 13.5735C12.0503 13.3704 12.3098 13.2688 12.6257 13.2688C12.9417 13.2688 13.2012 13.3704 13.4043 13.5735C13.6074 13.7766 13.7089 14.0361 13.7089 14.352C13.7089 14.6679 13.6074 14.9275 13.4043 15.1306C13.2012 15.3336 12.9417 15.4352 12.6257 15.4352C12.3098 15.4352 12.0503 15.3336 11.8472 15.1306ZM32.529 31.2766C32.6193 31.412 32.6644 31.5474 32.6644 31.6828V33.8491H31.5812V31.8859L30.4981 30.8027L29.9565 31.3443V33.8491H28.8733V31.1412C28.8733 31.0058 28.9184 30.8704 29.0087 30.735L29.7534 30.058L29.0087 29.381C28.783 29.4713 28.5574 29.5164 28.3317 29.5164C27.5645 29.5164 27.0455 29.1554 26.7747 28.4333H26.1654V30.6673C26.8875 30.9381 27.2486 31.4571 27.2486 32.2244C27.2486 32.6757 27.0906 33.0593 26.7747 33.3752C26.4587 33.6912 26.0751 33.8491 25.6238 33.8491C24.8566 33.8491 24.3375 33.4881 24.0667 32.7659H22.3743C22.2389 32.7659 22.1035 32.7208 21.9681 32.6306L21.2911 31.8859L19.531 33.7137C19.3956 33.804 19.2602 33.8491 19.1248 33.8491H15.8752V30.8704L11.9487 28.4333H3.96035C3.19311 28.4333 2.54997 28.6928 2.03095 29.2118C1.51193 29.7308 1.25242 30.3739 1.25242 31.1412V33.8491H0.16925V31.1412C0.16925 30.1032 0.541592 29.2118 1.28627 28.4671C2.03095 27.7224 2.92231 27.3501 3.96035 27.3501H11.5426V25.0483C10.0532 24.236 8.83463 23.1302 7.88685 21.7311C6.93908 20.332 6.37492 18.775 6.1944 17.06H5.58511C4.81786 17.06 4.17473 16.8004 3.65571 16.2814C3.13669 15.7624 2.87718 15.1193 2.87718 14.352C2.87718 13.5848 3.13669 12.9416 3.65571 12.4226C4.17473 11.9036 4.81786 11.6441 5.58511 11.6441H6.1267C6.1267 10.6963 6.26209 9.72598 6.53289 8.73308C5.04353 8.23662 4.20858 7.22115 4.02805 5.68665C3.84752 4.64861 4.07318 3.71212 4.70503 2.87718C5.33688 2.04223 6.1944 1.55706 7.27757 1.42166C7.54836 1.37653 7.72889 1.48936 7.81915 1.76015C7.99968 2.21148 8.33817 2.43714 8.83463 2.43714H20.2079C20.3433 2.43714 20.4787 2.48227 20.6141 2.57253L24.4052 6.36364C24.6309 6.27337 24.8566 6.22824 25.0822 6.22824C25.5335 6.22824 25.9172 6.3862 26.2331 6.70213C26.549 7.01805 26.707 7.40168 26.707 7.853C26.707 8.62025 26.3459 9.13927 25.6238 9.41006V12.7273H26.7747C27.0455 12.0051 27.5645 11.6441 28.3317 11.6441C28.783 11.6441 29.1667 11.8021 29.4826 12.118C29.7985 12.4339 29.9565 12.8175 29.9565 13.2688C29.9565 13.7202 29.7985 14.1038 29.4826 14.4197C29.1667 14.7356 28.783 14.8936 28.3317 14.8936C27.5645 14.8936 27.0455 14.5326 26.7747 13.8104H23.999V14.352C23.999 14.4874 23.9539 14.6228 23.8636 14.7582L23.3221 15.2998C23.1867 15.3901 23.0513 15.4352 22.9159 15.4352H20.8849C20.7044 15.6157 20.4787 15.7737 20.2079 15.9091V23.0851C20.7044 23.2656 21.0429 23.6041 21.2234 24.1006H21.8327V21.8665C21.1106 21.5957 20.7495 21.0767 20.7495 20.3095C20.7495 19.5422 21.1106 19.0232 21.8327 18.7524V17.06C21.8327 16.6989 22.0132 16.5184 22.3743 16.5184H24.6083C24.8791 15.7963 25.3981 15.4352 26.1654 15.4352C26.6167 15.4352 27.0003 15.5932 27.3163 15.9091C27.6322 16.225 27.7901 16.6086 27.7901 17.06C27.7901 17.8272 27.4291 18.3462 26.707 18.617V20.8511C26.707 20.9865 26.6618 21.1218 26.5716 21.2572L22.9159 24.8453V26.3346C23.4123 26.5151 23.7508 26.8536 23.9313 27.3501H26.7747C27.0455 26.628 27.5645 26.2669 28.3317 26.2669C28.783 26.2669 29.1667 26.4249 29.4826 26.7408C29.7985 27.0567 29.9565 27.4404 29.9565 27.8917C29.9565 28.1173 29.9114 28.343 29.8211 28.5687L32.529 31.2766ZM20.8172 27.3501C20.9977 26.8536 21.3362 26.5151 21.8327 26.3346V25.1837H21.2234C20.9526 25.9059 20.4336 26.2669 19.6663 26.2669C18.8991 26.2669 18.3801 25.9059 18.1093 25.1837H16.9584V27.3501H20.8172ZM18.1093 7.31141H16.9584V10.5609H19.1248V8.32689C18.6283 8.14636 18.2898 7.80787 18.1093 7.31141ZM19.6663 6.22824C19.6663 6.22824 19.5761 6.22824 19.3956 6.22824C19.215 6.22824 19.1248 6.40877 19.1248 6.76983C19.1248 7.13088 19.3053 7.31141 19.6663 7.31141C20.0274 7.31141 20.2079 7.13088 20.2079 6.76983C20.2079 6.40877 20.0274 6.22824 19.6663 6.22824ZM18.1093 14.8936H16.9584V18.1431H19.1248V15.9091C18.6283 15.7286 18.2898 15.3901 18.1093 14.8936ZM19.6663 25.1837C19.6663 25.1837 19.7566 25.1837 19.9371 25.1837C20.1177 25.1837 20.2079 25.0032 20.2079 24.6422C20.2079 24.2811 20.0274 24.1006 19.6663 24.1006C19.3053 24.1006 19.1248 24.2811 19.1248 24.6422C19.1248 25.0032 19.3053 25.1837 19.6663 25.1837ZM18.1093 24.1006C18.2898 23.6041 18.6283 23.2656 19.1248 23.0851V19.2263H16.9584V24.1006H18.1093ZM22.3743 28.4333C22.3743 28.4333 22.4645 28.4333 22.6451 28.4333C22.8256 28.4333 22.9159 28.2527 22.9159 27.8917C22.9159 27.5306 22.7353 27.3501 22.3743 27.3501C22.0132 27.3501 21.8327 27.5306 21.8327 27.8917C21.8327 28.2527 22.0132 28.4333 22.3743 28.4333ZM26.707 17.06C26.707 17.06 26.707 16.9697 26.707 16.7892C26.707 16.6086 26.5264 16.5184 26.1654 16.5184C25.8043 16.5184 25.6238 16.6989 25.6238 17.06C25.6238 17.421 25.8043 17.6015 26.1654 17.6015C26.5264 17.6015 26.707 17.421 26.707 17.06ZM24.6083 17.6015H22.9159V18.7524C23.638 19.0232 23.999 19.5422 23.999 20.3095C23.999 21.0767 23.638 21.5957 22.9159 21.8665V23.3559L25.6238 20.648V18.617C25.1273 18.4365 24.7889 18.098 24.6083 17.6015ZM22.9159 20.3095C22.9159 20.3095 22.9159 20.2192 22.9159 20.0387C22.9159 19.8581 22.7353 19.7679 22.3743 19.7679C22.0132 19.7679 21.8327 19.9484 21.8327 20.3095C21.8327 20.6705 22.0132 20.8511 22.3743 20.8511C22.7353 20.8511 22.9159 20.6705 22.9159 20.3095ZM19.1248 14.352C19.1248 14.352 19.1248 14.4423 19.1248 14.6228C19.1248 14.8033 19.3053 14.8936 19.6663 14.8936C20.0274 14.8936 20.2079 14.7131 20.2079 14.352C20.2079 13.991 20.0274 13.8104 19.6663 13.8104C19.3053 13.8104 19.1248 13.991 19.1248 14.352ZM22.7128 14.352L22.9159 14.1489V13.4719L21.088 11.6441H16.9584V13.8104H18.1093C18.3801 13.0883 18.8991 12.7273 19.6663 12.7273C20.1177 12.7273 20.5013 12.8852 20.8172 13.2012C21.1331 13.5171 21.2911 13.9007 21.2911 14.352H22.7128ZM28.8733 13.2688C28.8733 13.2688 28.8733 13.1786 28.8733 12.9981C28.8733 12.8175 28.6928 12.7273 28.3317 12.7273C27.9707 12.7273 27.7901 12.9078 27.7901 13.2688C27.7901 13.6299 27.9707 13.8104 28.3317 13.8104C28.6928 13.8104 28.8733 13.6299 28.8733 13.2688ZM25.0822 8.39459C25.0822 8.39459 25.1725 8.39459 25.353 8.39459C25.5335 8.39459 25.6238 8.21406 25.6238 7.853C25.6238 7.49194 25.4433 7.31141 25.0822 7.31141C24.7212 7.31141 24.5406 7.49194 24.5406 7.853C24.5406 8.21406 24.7212 8.39459 25.0822 8.39459ZM23.5928 7.17602L20.0048 3.52031H16.9584V6.22824H18.1093C18.3801 5.50612 18.8991 5.14507 19.6663 5.14507C20.1177 5.14507 20.5013 5.30303 20.8172 5.61896C21.1331 5.93488 21.2911 6.3185 21.2911 6.76983C21.2911 7.53707 20.9301 8.05609 20.2079 8.32689V10.5609H21.2911C21.4265 10.5609 21.5619 10.6061 21.6973 10.6963L23.6605 12.7273H24.5406V9.41006C23.8185 9.13927 23.4575 8.62025 23.4575 7.853C23.4575 7.62734 23.5026 7.40168 23.5928 7.17602ZM5.04353 5.55126C5.13379 6.09284 5.3933 6.57801 5.82206 7.00677C6.25081 7.43553 6.75855 7.69504 7.34527 7.7853H7.41296C7.41296 7.7853 7.41296 7.80787 7.41296 7.853C7.54836 7.853 7.70632 7.853 7.88685 7.853H15.8752V3.52031H8.83463C8.06738 3.52031 7.4581 3.18182 7.00677 2.50484C6.42006 2.68536 5.94617 3.02386 5.58511 3.52031C5.13379 4.10703 4.95326 4.78401 5.04353 5.55126ZM5.58511 15.9768H6.1267V12.7273H5.58511C5.13379 12.7273 4.75017 12.8852 4.43424 13.2012C4.11832 13.5171 3.96035 13.9007 3.96035 14.352C3.96035 14.8033 4.11832 15.187 4.43424 15.5029C4.75017 15.8188 5.13379 15.9768 5.58511 15.9768ZM7.20987 15.9768C7.20987 18.4139 8.04482 20.5238 9.71471 22.3066C11.3846 24.0893 13.4381 25.0483 15.8752 25.1837V8.93617C10.4143 8.93617 7.66119 8.93617 7.61606 8.93617C7.34527 9.83881 7.20987 10.7414 7.20987 11.6441V15.9768ZM15.8752 26.2669C14.7469 26.1767 13.6638 25.9284 12.6257 25.5222V27.6209L15.8752 29.6518V26.2669ZM18.9217 32.7659L20.5464 31.1412L20.0048 30.5996H16.9584V32.7659H18.9217ZM25.0822 32.2244C25.0822 32.2244 25.0822 32.3146 25.0822 32.4952C25.0822 32.6757 25.2627 32.7659 25.6238 32.7659C25.9849 32.7659 26.1654 32.5854 26.1654 32.2244C26.1654 31.8633 25.9849 31.6828 25.6238 31.6828C25.2627 31.6828 25.0822 31.8633 25.0822 32.2244ZM25.0822 30.6673V28.4333H23.9313C23.6605 29.1554 23.1415 29.5164 22.3743 29.5164C21.607 29.5164 21.088 29.1554 20.8172 28.4333H16.9584V29.5164H20.2079C20.3433 29.5164 20.4787 29.5616 20.6141 29.6518L22.5774 31.6828H24.0667C24.2473 31.1863 24.5858 30.8478 25.0822 30.6673ZM28.3317 27.3501C28.3317 27.3501 28.2415 27.3501 28.0609 27.3501C27.8804 27.3501 27.7901 27.5306 27.7901 27.8917C27.7901 28.2527 27.9707 28.4333 28.3317 28.4333C28.6928 28.4333 28.8733 28.2527 28.8733 27.8917C28.8733 27.5306 28.6928 27.3501 28.3317 27.3501Z" fill="#56C5B2"/>
    </g>
    <defs>
        <clipPath id="clip0_1_190">
            <rect width="35" height="35" fill="white"/>
        </clipPath>
    </defs>
</svg>