<svg width="35" height="35" viewBox="0 0 35 35" fill="none" xmlns="http://www.w3.org/2000/svg">
    <path d="M14.2505 16.5184C14.2505 16.3378 14.2956 16.2024 14.3859 16.1122L16.0106 14.4874C16.146 14.3972 16.2814 14.352 16.4168 14.352H20.2079C20.569 14.352 20.7495 14.5325 20.7495 14.8936V20.3095C20.7495 20.6705 20.569 20.8511 20.2079 20.8511H14.7921C14.431 20.8511 14.2505 20.6705 14.2505 20.3095V16.5184ZM15.3336 16.7215V19.7679H19.6663V15.4352H16.6199L15.3336 16.7215ZM31.5812 24.6422C32.168 24.6422 32.6757 24.8565 33.1044 25.2853C33.5332 25.714 33.7476 26.2218 33.7476 26.8085C33.7476 27.3952 33.5332 27.903 33.1044 28.3317C32.6757 28.7605 32.168 28.9748 31.5812 28.9748C31.1299 28.9748 30.7012 28.8169 30.295 28.501C29.8888 28.185 29.618 27.8014 29.4826 27.3501H27.7901C27.4291 27.3501 27.2485 27.1696 27.2485 26.8085V23.2205C25.7141 24.1683 24.0893 24.9129 22.3743 25.4545V29.5841C22.8256 29.7195 23.2092 29.9903 23.5251 30.3965C23.8411 30.8027 23.999 31.2315 23.999 31.6828C23.999 32.2695 23.7846 32.7772 23.3559 33.206C22.9271 33.6347 22.4194 33.8491 21.8327 33.8491C21.246 33.8491 20.7382 33.6347 20.3095 33.206C19.8807 32.7772 19.6663 32.2695 19.6663 31.6828C19.6663 31.2315 19.8243 30.8027 20.1402 30.3965C20.4562 29.9903 20.8398 29.7195 21.2911 29.5841V25.793C20.0274 26.109 18.7637 26.2669 17.5 26.2669C17.4097 26.2669 17.2292 26.2669 16.9584 26.2669V30.5996C16.9584 30.9607 16.7779 31.1412 16.4168 31.1412H14.7244C14.589 31.5925 14.3182 31.9761 13.912 32.2921C13.5058 32.608 13.077 32.7659 12.6257 32.7659C12.039 32.7659 11.5313 32.5516 11.1025 32.1228C10.6738 31.6941 10.4594 31.1863 10.4594 30.5996C10.4594 30.0129 10.6738 29.5051 11.1025 29.0764C11.5313 28.6476 12.039 28.4333 12.6257 28.4333C13.077 28.4333 13.5058 28.5912 13.912 28.9071C14.3182 29.2231 14.589 29.6067 14.7244 30.058H15.8752V26.1992C13.393 25.8833 11.0461 25.0935 8.83459 23.8298V26.8085C8.83459 27.1696 8.65406 27.3501 8.293 27.3501H6.60054C6.46515 27.8014 6.19435 28.185 5.78816 28.501C5.38197 28.8169 4.95322 28.9748 4.5019 28.9748C3.91518 28.9748 3.40744 28.7605 2.97869 28.3317C2.54993 27.903 2.33555 27.3952 2.33555 26.8085C2.33555 26.2218 2.54993 25.714 2.97869 25.2853C3.40744 24.8565 3.91518 24.6422 4.5019 24.6422C4.81782 24.6422 5.12246 24.7099 5.41582 24.8453C5.70918 24.9806 5.95741 25.1725 6.1605 25.4207C6.3636 25.6689 6.51028 25.951 6.60054 26.2669H7.75141V23.2205C5.35941 21.7763 3.2382 20.0161 1.38778 17.94C1.29751 17.8498 1.25238 17.7369 1.25238 17.6015C1.25238 17.4661 1.29751 17.3533 1.38778 17.263C2.33555 16.225 3.58797 15.0967 5.14503 13.8781C6.70209 12.6596 8.11247 11.7118 9.37617 11.0348V6.49902L7.48062 5.14505C7.11956 5.50611 6.66824 5.68664 6.12666 5.68664C5.72047 5.68664 5.35941 5.58509 5.04348 5.382C4.72756 5.1789 4.46805 4.91939 4.26495 4.60347C4.06186 4.28754 3.96031 3.92649 3.96031 3.5203C3.96031 2.93358 4.17469 2.42584 4.60344 1.99709C5.0322 1.56833 5.53994 1.35395 6.12666 1.35395C6.71337 1.35395 7.22111 1.56833 7.64987 1.99709C8.07862 2.42584 8.293 2.93358 8.293 3.5203C8.293 3.79109 8.24787 4.03932 8.1576 4.26498L10.2563 5.75434C10.3917 5.88974 10.4594 6.0477 10.4594 6.22823V10.5609C12.5355 9.61314 14.7018 9.07155 16.9584 8.93616V5.61894C16.5071 5.48355 16.1235 5.21275 15.8075 4.80656C15.4916 4.40037 15.3336 3.97162 15.3336 3.5203C15.3336 2.93358 15.548 2.42584 15.9768 1.99709C16.4055 1.56833 16.9133 1.35395 17.5 1.35395C18.0867 1.35395 18.5944 1.56833 19.0232 1.99709C19.452 2.42584 19.6663 2.93358 19.6663 3.5203C19.6663 3.97162 19.5084 4.40037 19.1924 4.80656C18.8765 5.21275 18.4929 5.48355 18.0416 5.61894V8.93616C20.5238 9.07155 22.8707 9.68084 25.0822 10.764V6.22823C25.0822 6.0477 25.1499 5.88974 25.2853 5.75434L27.3839 4.26498C27.2937 4.03932 27.2485 3.79109 27.2485 3.5203C27.2485 2.88844 27.4629 2.35814 27.8917 1.92939C28.3204 1.50063 28.8395 1.28625 29.4487 1.28625C30.058 1.28625 30.577 1.50063 31.0058 1.92939C31.4346 2.35814 31.6489 2.87716 31.6489 3.48645C31.6489 4.09574 31.4346 4.61475 31.0058 5.04351C30.577 5.47226 30.0467 5.68664 29.4149 5.68664C28.8733 5.68664 28.422 5.50611 28.0609 5.14505L26.1654 6.49902V11.3733C27.3388 12.0051 28.6476 12.8965 30.0919 14.0474C31.5361 15.1982 32.7095 16.2701 33.6122 17.263C33.7024 17.3533 33.7476 17.4661 33.7476 17.6015C33.7476 17.7369 33.7024 17.8498 33.6122 17.94C32.0326 19.7002 30.2724 21.2347 28.3317 22.5435V26.2669H29.4826C29.618 25.8156 29.8888 25.432 30.295 25.116C30.7012 24.8001 31.1299 24.6422 31.5812 24.6422ZM30.1934 2.74177C30.1934 2.74177 30.1426 2.69099 30.0411 2.58945C29.9396 2.4879 29.7308 2.43712 29.4149 2.43712C29.099 2.43712 28.8395 2.53867 28.6364 2.74177C28.4333 2.94486 28.3317 3.20437 28.3317 3.5203C28.3317 3.83622 28.4333 4.09573 28.6364 4.29883C28.8395 4.50192 29.099 4.60347 29.4149 4.60347C29.7308 4.60347 29.9903 4.50192 30.1934 4.29883C30.3965 4.09573 30.4981 3.83622 30.4981 3.5203C30.4981 3.20437 30.3965 2.94486 30.1934 2.74177ZM5.34813 4.29883C5.34813 4.29883 5.3989 4.3496 5.50045 4.45115C5.60199 4.55269 5.81073 4.60347 6.12666 4.60347C6.44258 4.60347 6.70209 4.50192 6.90519 4.29883C7.10828 4.09573 7.20983 3.83622 7.20983 3.5203C7.20983 3.20437 7.10828 2.94486 6.90519 2.74177C6.70209 2.53867 6.44258 2.43712 6.12666 2.43712C5.81073 2.43712 5.55122 2.53867 5.34813 2.74177C5.14503 2.94486 5.04348 3.20437 5.04348 3.5203C5.04348 3.83622 5.14503 4.09573 5.34813 4.29883ZM3.72337 27.587C3.72337 27.587 3.77414 27.6378 3.87569 27.7394C3.97724 27.8409 4.18597 27.8917 4.5019 27.8917C4.81782 27.8917 5.07733 27.7901 5.28043 27.587C5.48352 27.3839 5.58507 27.1244 5.58507 26.8085C5.58507 26.4926 5.48352 26.2331 5.28043 26.03C5.07733 25.8269 4.81782 25.7253 4.5019 25.7253C4.18597 25.7253 3.92646 25.8269 3.72337 26.03C3.52027 26.2331 3.41873 26.4926 3.41873 26.8085C3.41873 27.1244 3.52027 27.3839 3.72337 27.587ZM11.8472 31.3781C11.8472 31.3781 11.898 31.4289 11.9995 31.5305C12.1011 31.632 12.3098 31.6828 12.6257 31.6828C12.9416 31.6828 13.2012 31.5812 13.4042 31.3781C13.6073 31.175 13.7089 30.9155 13.7089 30.5996C13.7089 30.2837 13.6073 30.0242 13.4042 29.8211C13.2012 29.618 12.9416 29.5164 12.6257 29.5164C12.3098 29.5164 12.0503 29.618 11.8472 29.8211C11.6441 30.0242 11.5425 30.2837 11.5425 30.5996C11.5425 30.9155 11.6441 31.175 11.8472 31.3781ZM22.6112 32.4613C22.6112 32.4613 22.662 32.4105 22.7635 32.309C22.8651 32.2074 22.9159 31.9987 22.9159 31.6828C22.9159 31.3669 22.8143 31.1073 22.6112 30.9042C22.4081 30.7012 22.1486 30.5996 21.8327 30.5996C21.5168 30.5996 21.2572 30.7012 21.0542 30.9042C20.8511 31.1073 20.7495 31.3669 20.7495 31.6828C20.7495 31.9987 20.8511 32.2582 21.0542 32.4613C21.2572 32.6644 21.5168 32.7659 21.8327 32.7659C22.1486 32.7659 22.4081 32.6644 22.6112 32.4613ZM32.4613 17.6015C29.7082 14.7131 26.6844 12.5919 23.3897 11.2379C24.157 11.96 24.8114 12.9416 25.353 14.1828C25.8946 15.4239 26.1654 16.5635 26.1654 17.6015C26.1654 18.6396 25.8946 19.7792 25.353 21.0203C24.8114 22.2614 24.157 23.2431 23.3897 23.9652C26.6844 22.6112 29.7082 20.49 32.4613 17.6015ZM18.0416 12.1857H19.6663V10.3578C19.1248 10.1773 18.5832 10.0645 18.0416 10.0193V12.1857ZM15.3336 12.1857H16.9584V10.0193C16.4168 10.0645 15.8752 10.1773 15.3336 10.3578V12.1857ZM21.8327 13.2688H13.1673V21.9342H21.8327V13.2688ZM16.9584 23.0174H15.3336V24.8453C15.8752 25.0258 16.4168 25.1386 16.9584 25.1837V23.0174ZM18.0416 23.0174V25.1837C18.5832 25.1386 19.1248 25.0258 19.6663 24.8453V23.0174H18.0416ZM20.7495 23.0174V24.4391C21.4265 24.1231 22.1148 23.6154 22.8143 22.9159C23.5139 22.2163 24.0216 21.528 24.3375 20.8511H22.9159V22.4758C22.9159 22.8369 22.7353 23.0174 22.3743 23.0174H20.7495ZM24.7437 19.7679C24.9242 19.2263 25.0371 18.6847 25.0822 18.1431H22.9159V19.7679H24.7437ZM22.9159 17.0599H25.0822C25.0371 16.5184 24.9242 15.9768 24.7437 15.4352H22.9159V17.0599ZM22.9159 14.352H24.3375C24.0216 13.675 23.5139 12.9868 22.8143 12.2872C22.1148 11.5877 21.4265 11.0799 20.7495 10.764V12.1857H22.3743C22.7353 12.1857 22.9159 12.3662 22.9159 12.7273V14.352ZM14.2505 10.764C13.5735 11.0799 12.8852 11.5877 12.1857 12.2872C11.4861 12.9868 10.9784 13.675 10.6625 14.352H12.0841V12.7273C12.0841 12.3662 12.2647 12.1857 12.6257 12.1857H14.2505V10.764ZM10.2563 15.4352C10.0758 15.9768 9.96289 16.5184 9.91776 17.0599H12.0841V15.4352H10.2563ZM12.0841 18.1431H9.91776C9.96289 18.6847 10.0758 19.2263 10.2563 19.7679H12.0841V18.1431ZM12.0841 20.8511H10.6625C10.9784 21.528 11.4861 22.2163 12.1857 22.9159C12.8852 23.6154 13.5735 24.1231 14.2505 24.4391V23.0174H12.6257C12.2647 23.0174 12.0841 22.8369 12.0841 22.4758V20.8511ZM16.7215 2.74177C16.7215 2.74177 16.6707 2.79254 16.5691 2.89409C16.4676 2.99563 16.4168 3.20437 16.4168 3.5203C16.4168 3.83622 16.5184 4.09573 16.7215 4.29883C16.9246 4.50192 17.1841 4.60347 17.5 4.60347C17.8159 4.60347 18.0754 4.50192 18.2785 4.29883C18.4816 4.09573 18.5832 3.83622 18.5832 3.5203C18.5832 3.20437 18.4816 2.94486 18.2785 2.74177C18.0754 2.53867 17.8159 2.43712 17.5 2.43712C17.1841 2.43712 16.9246 2.53867 16.7215 2.74177ZM2.53865 17.6015C5.29171 20.49 8.31557 22.6112 11.6102 23.9652C10.843 23.2431 10.1886 22.2614 9.64697 21.0203C9.10538 19.7792 8.83459 18.6396 8.83459 17.6015C8.83459 16.5635 9.10538 15.4239 9.64697 14.1828C10.1886 12.9416 10.843 11.96 11.6102 11.2379C8.31557 12.5919 5.29171 14.7131 2.53865 17.6015ZM30.8027 27.587C30.8027 27.587 30.8535 27.6378 30.955 27.7394C31.0566 27.8409 31.2653 27.8917 31.5812 27.8917C31.8972 27.8917 32.1567 27.7901 32.3598 27.587C32.5629 27.3839 32.6644 27.1244 32.6644 26.8085C32.6644 26.4926 32.5629 26.2331 32.3598 26.03C32.1567 25.8269 31.8972 25.7253 31.5812 25.7253C31.2653 25.7253 31.0058 25.8269 30.8027 26.03C30.5996 26.2331 30.4981 26.4926 30.4981 26.8085C30.4981 27.1244 30.5996 27.3839 30.8027 27.587ZM14.2505 14.8936C14.2505 14.8936 14.1602 14.8936 13.9797 14.8936C13.7992 14.8936 13.7089 14.7131 13.7089 14.352C13.7089 13.991 13.8894 13.8104 14.2505 13.8104C14.6115 13.8104 14.7921 13.991 14.7921 14.352C14.7921 14.7131 14.6115 14.8936 14.2505 14.8936Z" fill="#BA4CF9"/>
</svg>