<svg xmlns="http://www.w3.org/2000/svg" width="18" height="18" viewBox="0 0 18 18" fill="none">
  <g clip-path="url(#clip0_1_856)">
    <path d="M10.902 16.2644C10.9305 16.3354 10.98 16.396 11.0439 16.4381C11.1079 16.4801 11.1831 16.5016 11.2596 16.4997C11.3361 16.4977 11.4102 16.4724 11.4718 16.4271C11.5335 16.3818 11.5799 16.3188 11.6047 16.2464L16.4797 1.99642C16.5037 1.92997 16.5083 1.85805 16.4929 1.78909C16.4776 1.72012 16.4429 1.65697 16.3929 1.607C16.3429 1.55704 16.2798 1.52234 16.2108 1.50696C16.1418 1.49159 16.0699 1.49617 16.0035 1.52017L1.75348 6.39517C1.6811 6.41999 1.61805 6.46636 1.57278 6.52805C1.52751 6.58974 1.5022 6.6638 1.50025 6.74029C1.49829 6.81678 1.51977 6.89204 1.56182 6.95597C1.60387 7.01989 1.66446 7.06943 1.73548 7.09792L7.68298 9.48292C7.87099 9.5582 8.04182 9.67077 8.18515 9.81384C8.32849 9.95692 8.44136 10.1275 8.51698 10.3154L10.902 16.2644Z" stroke="#0A0A0A" stroke-width="1.5" stroke-linecap="round" stroke-linejoin="round"/>
    <path d="M16.3905 1.61035L8.18549 9.8146" stroke="#0A0A0A" stroke-width="1.5" stroke-linecap="round" stroke-linejoin="round"/>
  </g>
  <defs>
    <clipPath id="clip0_1_856">
      <rect width="18" height="18" fill="white"/>
    </clipPath>
  </defs>
</svg>